<?xml version="1.0" encoding="UTF-8" standalone="no"?>
<svg
   xmlns:dc="http://purl.org/dc/elements/1.1/"
   xmlns:cc="http://creativecommons.org/ns#"
   xmlns:rdf="http://www.w3.org/1999/02/22-rdf-syntax-ns#"
   xmlns:svg="http://www.w3.org/2000/svg"
   xmlns="http://www.w3.org/2000/svg"
   xmlns:sodipodi="http://sodipodi.sourceforge.net/DTD/sodipodi-0.dtd"
   xmlns:inkscape="http://www.inkscape.org/namespaces/inkscape"
   width="16px"
   height="16px"
   viewBox="0 0 16 16"
   version="1.1"
   id="svg3835"
   sodipodi:docname="brush2.svg"
   inkscape:version="0.92.3 (2405546, 2018-03-11)">
  <metadata
     id="metadata3839">
    <rdf:RDF>
      <cc:Work
         rdf:about="">
        <dc:format>image/svg+xml</dc:format>
        <dc:type
           rdf:resource="http://purl.org/dc/dcmitype/StillImage" />
        <dc:title>Shape</dc:title>
      </cc:Work>
    </rdf:RDF>
  </metadata>
  <sodipodi:namedview
     pagecolor="#ffffff"
     bordercolor="#666666"
     borderopacity="1"
     objecttolerance="10"
     gridtolerance="10"
     guidetolerance="10"
     inkscape:pageopacity="0"
     inkscape:pageshadow="2"
     inkscape:window-width="1600"
     inkscape:window-height="838"
     id="namedview3837"
     showgrid="false"
     inkscape:zoom="41.8125"
     inkscape:cx="8"
     inkscape:cy="8"
     inkscape:window-x="-8"
     inkscape:window-y="-8"
     inkscape:window-maximized="1"
     inkscape:current-layer="svg3835" />
  <!-- Generator: Sketch 42 (36781) - http://www.bohemiancoding.com/sketch -->
  <title
     id="title3826">Shape</title>
  <desc
     id="desc3828">Created with Sketch.</desc>
  <defs
     id="defs3830" />
  <g
     id="Symbols"
     stroke="none"
     stroke-width="1"
     fill="none"
     fill-rule="evenodd"
     style="fill:#ffffff">
    <g
       id="entypo/brush"
       fill="#000000"
       style="fill:#ffffff">
      <path
         d="M2.2704,10.9176 C1.0712,12.0968 2.084,13.3064 0.4904,15.1008 C-0.2288,15.9112 3.4512,15.664 5.2736,13.8712 C6.0472,13.1112 5.8288,12.0032 4.9992,11.188 C4.1712,10.372 3.044,10.1576 2.2704,10.9176 L2.2704,10.9176 Z M15.5592,0.6976 C14.9432,0.0928 8.1304,5.5528 6.1016,7.5464 C5.0952,8.536 4.7592,9.0664 4.4512,9.4632 C4.3168,9.6352 4.4944,9.6888 4.5736,9.7296 C4.972,9.932 5.2512,10.1216 5.612,10.476 C5.972,10.8304 6.1648,11.1048 6.3712,11.496 C6.4128,11.5752 6.4672,11.7488 6.6416,11.6176 C7.0456,11.3144 7.5856,10.984 8.592,9.9944 C10.62,8 16.1744,1.3016 15.5592,0.6976 L15.5592,0.6976 Z"
         id="Shape"
         style="fill:#ffffff" />
    </g>
  </g>
</svg>
