<?xml version="1.0" encoding="UTF-8" standalone="no"?>
<svg
   xmlns:dc="http://purl.org/dc/elements/1.1/"
   xmlns:cc="http://creativecommons.org/ns#"
   xmlns:rdf="http://www.w3.org/1999/02/22-rdf-syntax-ns#"
   xmlns:svg="http://www.w3.org/2000/svg"
   xmlns="http://www.w3.org/2000/svg"
   xmlns:sodipodi="http://sodipodi.sourceforge.net/DTD/sodipodi-0.dtd"
   xmlns:inkscape="http://www.inkscape.org/namespaces/inkscape"
   width="117px"
   height="13px"
   viewBox="0 0 117 13"
   version="1.1"
   id="svg36"
   sodipodi:docname="logo2.svg"
   inkscape:version="0.92.3 (2405546, 2018-03-11)">
  <metadata
     id="metadata40">
    <rdf:RDF>
      <cc:Work
         rdf:about="">
        <dc:format>image/svg+xml</dc:format>
        <dc:type
           rdf:resource="http://purl.org/dc/dcmitype/StillImage" />
        <dc:title>DREAMSHARE</dc:title>
      </cc:Work>
    </rdf:RDF>
  </metadata>
  <sodipodi:namedview
     pagecolor="#ffffff"
     bordercolor="#666666"
     borderopacity="1"
     objecttolerance="10"
     gridtolerance="10"
     guidetolerance="10"
     inkscape:pageopacity="0"
     inkscape:pageshadow="2"
     inkscape:window-width="1600"
     inkscape:window-height="838"
     id="namedview38"
     showgrid="false"
     inkscape:zoom="6.1752137"
     inkscape:cx="65.834452"
     inkscape:cy="-16.636577"
     inkscape:window-x="-8"
     inkscape:window-y="-8"
     inkscape:window-maximized="1"
     inkscape:current-layer="svg36" />
  <!-- Generator: Sketch 42 (36781) - http://www.bohemiancoding.com/sketch -->
  <title
     id="title26">DREAMSHARE</title>
  <desc
     id="desc28">Created with Sketch.</desc>
  <defs
     id="defs30" />
  <g
     id="Page-1"
     stroke="none"
     stroke-width="1"
     fill="none"
     fill-rule="evenodd">
    <g
       id="Dreamshare_desktop"
       transform="translate(-250.000000, -2320.000000)"
       fill="#000000">
      <g
         id="Footer"
         transform="translate(0.000000, 2278.000000)">
        <path
           d="M259.016,44.28 C260.093339,45.2560049 260.632,46.6133246 260.632,48.352 C260.632,50.0906754 260.109339,51.4666616 259.064,52.48 C258.018661,53.4933384 256.418677,54 254.264,54 L250.552,54 L250.552,42.816 L254.392,42.816 C256.397343,42.816 257.938661,43.3039951 259.016,44.28 Z M258.728,48.4 C258.728,45.8399872 257.261348,44.56 254.328,44.56 L252.44,44.56 L252.44,52.224 L254.536,52.224 C255.890673,52.224 256.927996,51.9013366 257.648,51.256 C258.368004,50.6106634 258.728,49.658673 258.728,48.4 Z M271.992,46.448 C271.992,48.2933426 271.186675,49.4559976 269.576,49.936 L272.504,54 L270.104,54 L267.432,50.24 L264.952,50.24 L264.952,54 L263.064,54 L263.064,42.816 L267.224,42.816 C268.930675,42.816 270.151996,43.1039971 270.888,43.68 C271.624004,44.2560029 271.992,45.1786603 271.992,46.448 Z M269.48,48.032 C269.864002,47.7013317 270.056,47.1706703 270.056,46.44 C270.056,45.7093297 269.858669,45.2080014 269.464,44.936 C269.069331,44.6639986 268.365338,44.528 267.352,44.528 L264.952,44.528 L264.952,48.528 L267.304,48.528 C268.370672,48.528 269.095998,48.3626683 269.48,48.032 Z M282.568,42.816 L282.568,44.592 L276.6,44.592 L276.6,47.552 L281.96,47.552 L281.96,49.232 L276.6,49.232 L276.6,52.224 L282.76,52.224 L282.76,54 L274.712,54 L274.712,42.816 L282.568,42.816 Z M286.76,51.456 L285.64,54 L283.624,54 L288.552,42.816 L290.568,42.816 L295.496,54 L293.48,54 L292.36,51.456 L286.76,51.456 Z M291.592,49.712 L289.56,45.104 L287.528,49.712 L291.592,49.712 Z M298.936,54 L297.048,54 L297.048,42.816 L299.992,42.816 L303.368,49.84 L306.744,42.816 L309.672,42.816 L309.672,54 L307.784,54 L307.784,45.264 L303.88,53.024 L302.824,53.024 L298.936,45.264 L298.936,54 Z M314.808,44.624 C314.455998,44.8480011 314.28,45.1866644 314.28,45.64 C314.28,46.0933356 314.455998,46.4399988 314.808,46.68 C315.160002,46.9200012 315.909328,47.1786653 317.056,47.456 C318.202672,47.7333347 319.066664,48.1226642 319.648,48.624 C320.229336,49.1253358 320.52,49.8639951 320.52,50.84 C320.52,51.8160049 320.152004,52.607997 319.416,53.216 C318.679996,53.824003 317.714673,54.128 316.52,54.128 C314.770658,54.128 313.218673,53.5253394 311.864,52.32 L313.048,50.896 C314.178672,51.8773382 315.351994,52.368 316.568,52.368 C317.176003,52.368 317.658665,52.2373346 318.016,51.976 C318.373335,51.7146654 318.552,51.3680022 318.552,50.936 C318.552,50.5039978 318.384002,50.1680012 318.048,49.928 C317.711998,49.6879988 317.133337,49.4693343 316.312,49.272 C315.490663,49.0746657 314.866669,48.8933342 314.44,48.728 C314.013331,48.5626658 313.634668,48.346668 313.304,48.08 C312.642663,47.5786642 312.312,46.8106718 312.312,45.776 C312.312,44.7413282 312.687996,43.9440028 313.44,43.384 C314.192004,42.8239972 315.122661,42.544 316.232,42.544 C316.94667,42.544 317.655996,42.6613322 318.36,42.896 C319.064004,43.1306678 319.671997,43.4613312 320.184,43.888 L319.176,45.312 C318.845332,45.0133318 318.397336,44.768001 317.832,44.576 C317.266664,44.383999 316.709336,44.288 316.16,44.288 C315.610664,44.288 315.160002,44.3999989 314.808,44.624 Z M322.856,54 L322.856,42.816 L324.744,42.816 L324.744,47.664 L330.296,47.664 L330.296,42.816 L332.184,42.816 L332.184,54 L330.296,54 L330.296,49.424 L324.744,49.424 L324.744,54 L322.856,54 Z M336.872,51.456 L335.752,54 L333.736,54 L338.664,42.816 L340.68,42.816 L345.608,54 L343.592,54 L342.472,51.456 L336.872,51.456 Z M341.704,49.712 L339.672,45.104 L337.64,49.712 L341.704,49.712 Z M356.088,46.448 C356.088,48.2933426 355.282675,49.4559976 353.672,49.936 L356.6,54 L354.2,54 L351.528,50.24 L349.048,50.24 L349.048,54 L347.16,54 L347.16,42.816 L351.32,42.816 C353.026675,42.816 354.247996,43.1039971 354.984,43.68 C355.720004,44.2560029 356.088,45.1786603 356.088,46.448 Z M353.576,48.032 C353.960002,47.7013317 354.152,47.1706703 354.152,46.44 C354.152,45.7093297 353.954669,45.2080014 353.56,44.936 C353.165331,44.6639986 352.461338,44.528 351.448,44.528 L349.048,44.528 L349.048,48.528 L351.4,48.528 C352.466672,48.528 353.191998,48.3626683 353.576,48.032 Z M366.664,42.816 L366.664,44.592 L360.696,44.592 L360.696,47.552 L366.056,47.552 L366.056,49.232 L360.696,49.232 L360.696,52.224 L366.856,52.224 L366.856,54 L358.808,54 L358.808,42.816 L366.664,42.816 Z"
           id="DREAMSHARE" />
      </g>
    </g>
  </g>
  <path
     style="fill:#ff0000;stroke-width:0.08096886"
     d="M 72.912457,6.4028374 V 0.81598616 h 0.890657 0.890658 V 3.2450519 5.6741176 h 2.83391 2.83391 V 3.2450519 0.81598616 h 0.890657 0.890658 V 6.4028374 11.989689 H 81.252249 80.361592 V 9.6820761 7.3744637 h -2.83391 -2.83391 v 2.3076124 2.3076129 h -0.890658 -0.890657 z"
     id="path42"
     inkscape:connector-curvature="0" />
  <path
     style="fill:#ff0000;stroke-width:0.08096886"
     d="M 72.912457,6.4028374 V 0.81598616 h 0.890657 0.890658 V 3.2450519 5.6741176 h 2.83391 2.83391 V 3.2450519 0.81598616 h 0.890657 0.890658 V 6.4028374 11.989689 H 81.252249 80.361592 V 9.6820761 7.3744637 h -2.83391 -2.83391 v 2.3076124 2.3076129 h -0.890658 -0.890657 z"
     id="path44"
     inkscape:connector-curvature="0" />
  <path
     style="fill:#ff0000;stroke-width:0.08096886"
     d="M 65.139446,11.947903 C 64.172042,11.750235 63.145078,11.279149 62.373737,10.679224 L 61.915641,10.32293 62.454706,9.6628104 c 0.296486,-0.3630652 0.559812,-0.6621107 0.585169,-0.6645446 0.02536,-0.00244 0.243972,0.1435408 0.485813,0.3243879 0.542376,0.4055852 1.270752,0.7596463 1.899829,0.9235003 0.571247,0.148791 1.633518,0.162006 2.087565,0.02597 0.671914,-0.20131 1.19898,-0.9867939 1.059444,-1.5788835 C 68.398079,7.9530158 67.895665,7.654801 65.949135,7.1360906 63.946371,6.6023952 63.095083,6.1050878 62.659196,5.2141677 62.463684,4.8145554 62.425347,4.624827 62.400581,3.9343025 62.376225,3.2552209 62.39972,3.0486465 62.545295,2.661944 c 0.507648,-1.3485117 2.200527,-2.20357299 4.079,-2.06027493 1.113801,0.0849655 2.084983,0.39392359 3.029165,0.96365593 0.233798,0.1410766 0.425087,0.2888015 0.425087,0.3282776 0,0.039476 -0.200845,0.3567743 -0.446322,0.7051071 L 69.185904,3.2320421 68.721326,2.9522153 C 68.05651,2.5517806 67.330505,2.3438871 66.42606,2.2949602 c -0.939322,-0.050814 -1.448243,0.086752 -1.848437,0.4996473 -0.43825,0.4521585 -0.450277,1.1690931 -0.02803,1.6709029 0.289579,0.3441455 0.824603,0.5716452 2.270686,0.965528 1.246666,0.3395657 2.279506,0.7889318 2.789044,1.2134509 0.170548,0.142091 0.415096,0.4837618 0.566782,0.7918807 0.248067,0.5038964 0.266804,0.5990541 0.266804,1.3550487 0,0.7532614 -0.01931,0.8523227 -0.262443,1.3461903 -0.455508,0.925268 -1.379354,1.602072 -2.514726,1.842273 -0.564486,0.119424 -1.865943,0.102949 -2.526292,-0.03198 z"
     id="path46"
     inkscape:connector-curvature="0" />
  <path
     style="fill:#ff0000;stroke-width:0.08096886"
     d="m 65.179931,11.934661 c -0.431228,-0.09651 -1.264085,-0.397063 -1.700346,-0.613595 -0.481345,-0.23891 -1.497924,-0.919001 -1.497924,-1.00211 0,-0.08249 0.993832,-1.2441463 1.064403,-1.2441463 0.03905,0 0.280087,0.1415352 0.535648,0.3145235 1.088118,0.7365438 1.842789,0.9818918 3.011943,0.9791998 1.101796,-0.0025 1.597856,-0.260353 1.902134,-0.9885946 C 68.662514,8.9809101 68.653768,8.7275343 68.460169,8.3480498 68.250614,7.9372871 67.810755,7.6772146 66.799308,7.3660432 64.765555,6.7403599 64.47356,6.6419198 64.031259,6.4328541 63.772371,6.3104839 63.374831,6.0247783 63.147837,5.7979527 62.611906,5.2624204 62.462808,4.8239955 62.450221,3.7466026 c -0.0085,-0.7244578 0.01335,-0.8562952 0.207304,-1.2527173 0.396708,-0.8108424 1.245965,-1.439169 2.325765,-1.72072705 0.64301,-0.16766525 2.211998,-0.1263813 2.949582,0.0776108 0.494746,0.1368309 1.651935,0.67151595 1.940593,0.89666135 0.15403,0.120139 0.154588,0.1328527 0.01692,0.3858404 -0.0783,0.1438845 -0.268338,0.4341184 -0.422309,0.6449642 L 69.188124,3.1615914 68.554346,2.837681 C 67.79457,2.4493751 67.040047,2.2761072 66.111073,2.2766098 c -0.813393,4.4e-4 -1.206802,0.146555 -1.59983,0.5941891 -0.221332,0.2520831 -0.262454,0.3625401 -0.262454,0.7049667 0,0.6062817 0.267556,1.0172927 0.855352,1.3139666 0.136447,0.068868 0.865167,0.3129772 1.619377,0.5424652 2.211063,0.6727729 2.958618,1.1144186 3.452733,2.0398289 0.163967,0.3070877 0.185687,0.4614178 0.185687,1.3193924 0,0.8612924 -0.02134,1.0116168 -0.187932,1.3237933 -0.416885,0.781203 -1.235538,1.443608 -2.127045,1.721076 -0.391129,0.121733 -0.721217,0.151461 -1.598985,0.144008 -0.608359,-0.0052 -1.178979,-0.0257 -1.268045,-0.04563 z"
     id="path48"
     inkscape:connector-curvature="0" />
  <path
     style="fill:#ff0000;stroke-width:0.08096886"
     d="M 47.083391,6.4028374 V 0.81598616 l 1.437197,0.00185 1.437197,0.00185 1.671439,3.48397954 c 0.919291,1.9161888 1.701468,3.485905 1.738171,3.4882582 0.0367,0.00235 0.816891,-1.5571613 1.733753,-3.4655876 l 1.66702,-3.46986617 1.432698,-0.0221105 1.432698,-0.0221105 V 6.4009691 11.989689 H 58.742907 57.852249 V 7.6173702 c 0,-2.404775 -0.02763,-4.3723183 -0.0614,-4.3723183 -0.03377,0 -0.935258,1.7489273 -2.003305,3.8865052 L 53.84564,11.018062 H 53.358478 52.871315 L 50.929412,7.1315571 C 49.861365,4.9939792 48.959878,3.2450519 48.926107,3.2450519 c -0.03377,0 -0.0614,1.9675433 -0.0614,4.3723183 v 4.3723188 h -0.890658 -0.890657 z"
     id="path50"
     inkscape:connector-curvature="0" />
  <path
     style="fill:#ff0000;stroke-width:0.08096886"
     d="M 47.083391,6.4028374 V 0.81598616 h 1.422584 1.422583 l 0.449943,0.95138404 c 1.201083,2.5396347 2.935174,6.0119378 3.002401,6.0119378 0.04149,0 0.812124,-1.5212025 1.712523,-3.3804499 0.900399,-1.8592474 1.661754,-3.40316108 1.691901,-3.43091933 0.03015,-0.0277582 0.683333,-0.0716511 1.451525,-0.0975397 l 1.396713,-0.0470702 V 6.4065087 11.989689 H 58.742907 57.852249 V 7.6000197 c 0,-3.8376493 -0.01478,-4.3747591 -0.117552,-4.2711072 -0.06465,0.065209 -0.978242,1.8219439 -2.030195,3.9038557 L 53.791859,11.018062 H 53.358478 52.925096 L 51.012453,7.2327682 C 49.9605,5.1508564 49.046912,3.3941213 48.982258,3.3289125 48.879489,3.2252606 48.864706,3.7623704 48.864706,7.6000197 v 4.3896693 h -0.890658 -0.890657 z"
     id="path52"
     inkscape:connector-curvature="0" />
  <path
     style="fill:#ff0000;stroke-width:0.08096886"
     d="M 13.076471,6.3910859 V 0.79248321 l 2.732699,0.0494328 c 2.98826,0.0540558 3.564875,0.12270059 4.429545,0.52732849 0.680019,0.3182195 1.049544,0.6657425 1.334696,1.255226 0.591301,1.2223717 0.461431,3.1202855 -0.282386,4.1267678 -0.307819,0.4165198 -1.102938,0.982632 -1.503789,1.0706736 -0.137377,0.030173 -0.228877,0.094929 -0.208642,0.1476594 0.01982,0.051655 0.660022,0.9585131 1.422668,2.0152393 0.762645,1.0567274 1.386627,1.9401214 1.386627,1.9630994 0,0.02298 -0.504489,0.04178 -1.121086,0.04178 H 20.145716 L 18.794178,10.08692 17.442641,8.1841522 H 16.190697 14.938754 V 10.08692 11.989689 H 14.007612 13.076471 Z M 18.891336,6.376535 C 19.740255,6.0553319 20.057541,5.5491974 20.067653,4.5000692 20.075277,3.7091964 19.953574,3.3283097 19.591733,3.0106095 19.149746,2.6225397 18.864912,2.5738601 16.82128,2.5371249 l -1.882526,-0.033839 v 2.0395302 2.0395302 l 1.801557,-0.036792 c 1.400923,-0.02861 1.879273,-0.066197 2.151025,-0.1690193 z"
     id="path54"
     inkscape:connector-curvature="0" />
  <path
     style="fill:#ff0000;stroke-width:0.08096886"
     d="M 13.076471,6.4028374 V 0.81598616 l 0.465571,0.002553 c 1.584728,0.008692 5.239096,0.16672314 5.645617,0.24414204 1.784391,0.3398244 2.714417,1.4873945 2.714417,3.3493526 0,1.5879704 -0.632203,2.6912861 -1.872808,3.2684092 -0.260481,0.1211748 -0.473982,0.2444067 -0.474446,0.2738488 -4.61e-4,0.029442 0.6184,0.9221234 1.375251,1.9837369 l 1.376094,1.9302053 -0.303256,0.05606 c -0.166791,0.03083 -0.649399,0.05658 -1.072461,0.05722 l -0.769204,0.0012 -1.335986,-1.898201 -1.335987,-1.8982025 -1.275259,-0.00106 -1.27526,-0.00106 v 1.9027675 1.902769 h -0.931142 -0.931141 z m 5.080128,0.1127483 C 18.867787,6.4604344 19.511571,6.1634041 19.771856,5.7703347 20.132251,5.2260831 20.21469,3.9767061 19.926597,3.4252011 19.764026,3.1139875 19.400422,2.798622 19.068166,2.6806565 18.909094,2.6241791 18.234218,2.565544 17.529758,2.5469954 16.839498,2.5288207 15.974144,2.5028001 15.606747,2.4891718 L 14.938754,2.4643928 V 4.541244 6.6180951 l 1.315744,-0.028519 c 0.723659,-0.015686 1.579605,-0.048981 1.902101,-0.07399 z"
     id="path56"
     inkscape:connector-curvature="0" />
  <path
     style="fill:#ff0000;stroke-width:0.08096886"
     d="M 13.076471,6.4028374 V 0.81598616 l 0.748962,0.001872 c 1.778949,0.004447 4.935806,0.1614392 5.464992,0.27177754 1.750476,0.3649846 2.611651,1.4677735 2.611651,3.3443827 0,1.551809 -0.615634,2.6372612 -1.8338,3.2332543 -0.240055,0.117448 -0.452594,0.2396411 -0.472309,0.2715402 -0.01972,0.031899 0.583348,0.9281844 1.340139,1.9917444 1.165026,1.6372747 1.353864,1.9424847 1.231704,1.9907477 -0.07935,0.03135 -0.563294,0.05898 -1.075422,0.06141 l -0.931142,0.0044 -1.335986,-1.898365 -1.335987,-1.8983638 -1.275259,-0.00312 -1.27526,-0.00312 v 1.9027678 1.902769 h -0.931142 -0.931141 z m 5.203949,0.085247 C 19.38771,6.3417607 19.892334,5.8999472 20.046656,4.9416921 20.175246,4.1432229 20.022836,3.4142161 19.653319,3.0602804 19.197807,2.6239765 18.94462,2.5762349 16.861765,2.533898 l -1.923011,-0.039088 -1.06e-4,2.0552246 -1.05e-4,2.0552247 1.396818,-0.022363 c 0.76825,-0.0123 1.643527,-0.054965 1.945059,-0.094812 z"
     id="path58"
     inkscape:connector-curvature="0" />
  <path
     style="fill:#ff0000;stroke-width:0.08096886"
     d="M 0.60726644,6.413207 V 0.81598616 l 1.76107266,0.002362 C 5.6212776,0.82271045 6.7372176,0.98640831 8.0028896,1.6448832 9.2511204,2.2942842 10.152264,3.5076693 10.454081,4.9453979 10.654434,5.8997964 10.57602,7.5442288 10.28999,8.3865744 9.656308,10.252745 8.4044793,11.312832 6.2750865,11.78652 5.8107533,11.889812 5.0722652,11.932061 3.1375433,11.966017 l -2.53027686,0.04441 z m 5.45155566,3.68024 C 7.217219,9.7762032 8.1175793,9.0436124 8.4539312,8.1446313 9.1281959,6.3424983 8.6775969,4.2195982 7.4314067,3.3272208 6.5989671,2.7311239 5.6079518,2.5205139 3.6233564,2.5179361 l -1.2347751,-0.0016 v 3.8975936 3.8975933 l 1.599135,-0.04441 c 1.0889442,-0.03024 1.7497133,-0.08565 2.0711058,-0.173664 z"
     id="path60"
     inkscape:connector-curvature="0" />
  <path
     style="fill:#ff0000;stroke-width:0.08096886"
     d="M 0.60726644,6.3907103 V 0.79173187 L 2.7731834,0.84741817 C 5.8516722,0.92656687 6.6483916,1.0425838 7.7730104,1.5754851 8.5563557,1.9466737 9.1858676,2.4876306 9.6608017,3.1977154 10.376736,4.2681255 10.633229,5.4710483 10.484215,7.0594203 10.300869,9.0137479 9.4149681,10.416043 7.884968,11.173777 6.7335232,11.74403 6.2920751,11.822708 3.7650519,11.908061 c -1.224654,0.04137 -2.4361505,0.07665 -2.6922145,0.07842 l -0.46557096,0.0032 z M 4.7644826,10.248706 C 6.250304,10.186259 6.9188284,9.9433481 7.7608491,9.159963 8.4310469,8.5364364 8.7827277,7.5875684 8.7827277,6.4028374 8.7827277,4.8833248 8.1648095,3.6641075 7.111172,3.1046826 6.2895749,2.6684587 5.8304663,2.5842053 4.0282007,2.5389109 L 2.3885813,2.4977042 v 3.936776 3.9367758 l 0.6679931,-0.03942 c 0.3673962,-0.02168 1.1359549,-0.05909 1.7079082,-0.08313 z"
     id="path62"
     inkscape:connector-curvature="0" />
  <path
     style="fill:#ff0000;stroke-width:0.08096886"
     d="M 24.735986,6.4028374 V 0.81598616 h 3.886505 3.886506 V 1.6661592 2.5163322 H 29.553633 26.59827 v 1.5384083 1.5384083 h 2.671972 2.671973 V 6.4028374 7.212526 H 29.270242 26.59827 v 1.5384083 1.5384087 h 3.076817 3.076816 v 0.850173 0.850173 h -4.007958 -4.007959 z"
     id="path64"
     inkscape:connector-curvature="0" />
  <path
     style="fill:#ff0000;stroke-width:0.08096886"
     d="M 24.735986,6.4028374 V 0.81598616 h 3.886505 3.886506 V 1.6661592 2.5163322 H 29.553633 26.59827 v 1.5384083 1.5384083 h 2.671972 2.671973 V 6.4028374 7.212526 H 29.270242 26.59827 v 1.5384083 1.5384087 h 3.076817 3.076816 v 0.850173 0.850173 h -4.007958 -4.007959 z"
     id="path66"
     inkscape:connector-curvature="0" />
  <path
     style="fill:#ff0000;stroke-width:0.08096886"
     d="M 33.745323,11.85065 C 33.779567,11.73315 38.14743,1.8104225 38.50568,1.0362714 l 0.104142,-0.22504347 0.966305,0.0226213 0.966304,0.0226213 1.533936,3.48166087 c 0.843664,1.9149135 1.947756,4.4209828 2.453537,5.5690429 l 0.919604,2.0873817 -0.975547,-0.02268 -0.975547,-0.02268 -0.549729,-1.255017 -0.549727,-1.2550175 -2.826886,-0.021264 -2.826886,-0.021263 -0.565394,1.2762805 -0.565394,1.276281 -0.955573,0.0229 c -0.884364,0.02119 -0.952437,0.01214 -0.913502,-0.121454 z m 7.832186,-4.1716826 c 0,-0.1267542 -1.969032,-4.5963398 -2.024051,-4.5944761 -0.04421,0.0015 -1.941006,4.3037234 -2.004487,4.5464755 -0.03685,0.1409013 0.0632,0.1483412 1.994873,0.1483412 1.563543,0 2.033665,-0.023196 2.033665,-0.1003406 z"
     id="path68"
     inkscape:connector-curvature="0" />
  <path
     style="fill:#ff0000;stroke-width:0.08096886"
     d="m 44.213487,11.913661 -0.724229,-0.04543 -0.530788,-1.233837 -0.530788,-1.2338384 -2.867951,0.019305 -2.867951,0.019305 -0.539047,1.2145324 -0.539047,1.214533 -0.904594,0.02289 c -0.497526,0.01259 -0.904594,-0.0061 -0.904594,-0.04151 0,-0.05689 1.226341,-2.8675007 3.973075,-9.1057618 l 0.844572,-1.9181546 0.931142,0.0459528 c 0.512128,0.025274 0.954411,0.0686339 0.982852,0.0963554 0.04269,0.0416085 4.654133,10.4741742 4.81408,10.8909922 0.03962,0.103249 0.0016,0.127478 -0.181176,0.11539 -0.12723,-0.0084 -0.55723,-0.03574 -0.955556,-0.06073 z M 41.577509,7.6569868 c 0,-0.067277 -0.323178,-0.8597593 -0.718173,-1.7610726 -1.084495,-2.4746388 -1.241542,-2.8128 -1.306306,-2.8128 -0.03275,0 -0.151696,0.2095069 -0.264325,0.4655709 -1.307941,2.9736145 -1.678459,3.8372276 -1.723799,4.0178764 l -0.0534,0.2127465 h 2.033 c 1.759541,0 2.032999,-0.016453 2.032999,-0.1223212 z"
     id="path70"
     inkscape:connector-curvature="0" />
  <path
     style="fill:#ff0000;stroke-width:0.08096886"
     d="m 86.235881,6.4254963 2.454795,-5.56902571 h 0.981508 0.981509 L 93.07823,6.3564221 c 1.333497,3.0249729 2.424538,5.5311029 2.424538,5.5691789 0,0.03807 -0.424893,0.05896 -0.944207,0.04641 L 93.614353,11.949204 93.052041,10.673945 92.489727,9.3986851 H 89.67301 86.856293 l -0.562322,1.2752599 -0.562322,1.275259 -0.975282,0.02266 -0.975281,0.02266 z m 5.461351,1.2652074 c 0,-0.1178076 -1.97221,-4.6063065 -2.024222,-4.6068708 -0.05276,-5.725e-4 -2.024221,4.482925 -2.024221,4.6034778 0,0.06623 0.566947,0.091997 2.024221,0.091997 1.411793,0 2.024222,-0.026807 2.024222,-0.088604 z"
     id="path72"
     inkscape:connector-curvature="0" />
  <path
     style="fill:#ff0000;stroke-width:0.08096886"
     d="m 83.843253,11.952491 c 0,-0.01427 1.090237,-2.4984896 2.42275,-5.5204956 l 2.42275,-5.49455595 h 0.983748 0.983747 l 0.769666,1.74083045 c 1.614504,3.6516834 3.894253,8.8758541 3.950166,9.0520201 l 0.05835,0.183851 -0.91164,-0.02295 -0.91164,-0.02295 -0.534961,-1.214533 -0.534961,-1.2145324 H 89.6761 86.810972 l -0.518879,1.1740484 c -0.285383,0.645727 -0.543216,1.196811 -0.572961,1.224633 -0.05476,0.05121 -1.875882,0.16251 -1.875882,0.11464 z m 7.853979,-4.2827884 c 0,-0.060283 -0.348837,-0.9074196 -0.775193,-1.882526 -1.149485,-2.6289557 -1.184171,-2.7040624 -1.248772,-2.7040624 -0.06651,0 -0.265522,0.430651 -1.306455,2.8270698 -0.394913,0.9091617 -0.718023,1.7016444 -0.718023,1.7610726 0,0.087208 0.39048,0.1080514 2.024221,0.1080514 1.64808,0 2.024222,-0.020367 2.024222,-0.1096054 z"
     id="path74"
     inkscape:connector-curvature="0" />
  <path
     style="fill:#ff0000;stroke-width:0.08096886"
     d="M 97.203114,6.4028374 V 0.81598616 l 1.923011,0.002362 c 2.082315,0.002557 3.735555,0.0962423 4.361775,0.24717084 1.11865,0.2696114 1.9574,0.9339024 2.29706,1.8192686 0.25456,0.6635365 0.31693,1.9734812 0.12892,2.7073771 -0.25054,0.9779457 -0.8339,1.6856891 -1.71297,2.078219 -0.28376,0.1267077 -0.51691,0.2574783 -0.51811,0.2906011 -0.001,0.033123 0.63521,0.9440221 1.41424,2.0242211 l 1.41642,1.9639981 -1.06821,0.02271 c -0.58752,0.01249 -1.10971,0.0068 -1.16041,-0.01267 -0.0507,-0.01946 -0.68849,-0.876811 -1.4173,-1.90523 l -1.3251,-1.8698536 h -1.279 -1.279011 v 1.9027676 1.902769 h -0.890657 -0.890658 z m 5.800516,-0.02815 c 0.50764,-0.1643577 0.95173,-0.6226478 1.08632,-1.1210672 0.14623,-0.5415092 0.0635,-1.5960187 -0.1526,-1.9457173 -0.40713,-0.658755 -0.94893,-0.7915706 -3.2291,-0.7915706 h -1.723821 v 2.0320295 2.0320295 l 1.801561,-0.035495 c 1.38327,-0.027254 1.89816,-0.066772 2.21764,-0.1702089 z"
     id="path76"
     inkscape:connector-curvature="0" />
  <path
     style="fill:#ff0000;stroke-width:0.08096886"
     d="M 97.203114,6.4028374 V 0.81598616 l 0.870415,0.002552 c 1.562856,0.004583 4.746601,0.15065215 5.201901,0.23866194 0.62247,0.1203228 1.38035,0.4937592 1.81479,0.8942131 0.52684,0.4856197 0.76417,1.0209011 0.84604,1.9081498 0.17346,1.8797813 -0.37165,3.0673373 -1.73046,3.7699473 -0.28852,0.1491878 -0.52368,0.3076865 -0.52259,0.3522194 10e-4,0.044533 0.61554,0.9372145 1.36545,1.983737 l 1.36347,1.9027683 -1.06212,0.0239 -1.06212,0.0239 -0.20242,-0.256202 c -0.11134,-0.140912 -0.71509,-0.971477 -1.34168,-1.8457003 l -1.13925,-1.5894964 -1.31005,-0.022248 -1.310061,-0.022248 v 1.9047747 1.904774 h -0.890657 -0.890658 z m 4.373256,0.1319031 c 1.2772,-0.035468 1.63216,-0.1254793 2.05374,-0.5208004 0.385,-0.3610186 0.533,-0.7829709 0.53099,-1.5138709 -0.003,-1.0304326 -0.21847,-1.4619535 -0.88532,-1.7715773 -0.33137,-0.1538569 -0.54214,-0.1717865 -2.32786,-0.198023 L 98.984429,2.5016209 V 4.563517 6.6254132 l 0.708478,-0.029022 c 0.389663,-0.015962 1.237223,-0.043705 1.883463,-0.061651 z"
     id="path78"
     inkscape:connector-curvature="0" />
  <path
     style="fill:#ff0000;stroke-width:0.08096886"
     d="M 108.86263,6.4028374 V 0.81598616 h 3.8865 3.88651 V 1.6651616 2.5143369 l -2.97561,0.02124 -2.9756,0.02124 -0.022,1.5181661 -0.022,1.5181661 h 2.67376 2.67376 V 6.4028374 7.212526 h -2.67197 -2.67198 v 1.5384083 1.5384087 h 3.07682 3.07682 v 0.850173 0.850173 h -3.96748 -3.96747 z"
     id="path80"
     inkscape:connector-curvature="0" />
  <path
     style="fill:#ff4e50;stroke-width:0.08096886;fill-opacity:1"
     d="M 108.86263,6.4028374 V 0.81598616 h 3.8865 3.88651 v 0.85017304 0.850173 h -2.99585 -2.99585 v 1.5384083 1.5384083 h 2.67198 2.67197 V 6.4028374 7.212526 h -2.67197 -2.67198 v 1.5384083 1.5384087 h 3.07682 3.07682 v 0.850173 0.850173 h -3.96748 -3.96747 z"
     id="path82"
     inkscape:connector-curvature="0" />
  <path
     style="fill:#ff4e50;fill-opacity:1;stroke-width:0.08096886"
     d="M 72.952941,6.4028374 V 0.81598616 h 0.850173 0.850173 V 3.2450519 5.6741176 h 2.874395 2.874394 V 3.2450519 0.81598616 h 0.850173 0.850173 V 6.4028374 11.989689 H 81.252249 80.402076 V 9.6820761 7.3744637 h -2.874394 -2.874395 v 2.3076124 2.3076129 h -0.850173 -0.850173 z"
     id="path4595"
     inkscape:connector-curvature="0" />
  <path
     style="fill:#ff4e50;fill-opacity:1;stroke-width:0.08096886"
     d="M 72.952941,6.4028374 V 0.81598616 h 0.850173 0.850173 V 3.2450519 5.6741176 h 2.874395 2.874394 V 3.2450519 0.81598616 h 0.850173 0.850173 V 6.4028374 11.989689 H 81.252249 80.402076 V 9.6820761 7.3744637 h -2.874394 -2.874395 v 2.3076124 2.3076129 h -0.850173 -0.850173 z"
     id="path4597"
     inkscape:connector-curvature="0" />
  <path
     style="fill:#ff4e50;fill-opacity:1;stroke-width:0.08096886"
     d="M 72.952941,6.4028374 V 0.81598616 h 0.850173 0.850173 V 3.2450519 5.6741176 h 2.874395 2.874394 V 3.2450519 0.81598616 h 0.850173 0.850173 V 6.4028374 11.989689 H 81.252249 80.402076 V 9.6820761 7.3744637 h -2.874394 -2.874395 v 2.3076124 2.3076129 h -0.850173 -0.850173 z"
     id="path4599"
     inkscape:connector-curvature="0" />
  <path
     style="fill:#ff4e50;fill-opacity:1;stroke-width:0.08096886"
     d="M 72.952941,6.4028374 V 0.81598616 h 0.850173 0.850173 V 3.2450519 5.6741176 h 2.874395 2.874394 V 3.2450519 0.81598616 h 0.850173 0.850173 V 6.4028374 11.989689 H 81.252249 80.402076 V 9.6820761 7.3744637 h -2.874394 -2.874395 v 2.3076124 2.3076129 h -0.850173 -0.850173 z"
     id="path4601"
     inkscape:connector-curvature="0" />
  <path
     style="fill:#ff4e50;fill-opacity:1;stroke-width:0.08096886"
     d="M 72.952941,6.4028374 V 0.81598616 h 0.850173 0.850173 V 3.2450519 5.6741176 h 2.874395 2.874394 V 3.2450519 0.81598616 h 0.850173 0.850173 V 6.4028374 11.989689 H 81.252249 80.402076 V 9.6820761 7.3744637 h -2.874394 -2.874395 v 2.3076124 2.3076129 h -0.850173 -0.850173 z"
     id="path4603"
     inkscape:connector-curvature="0" />
  <path
     style="fill:#ff4e50;fill-opacity:1;stroke-width:0.08096886"
     d="m 44.077629,11.929777 -0.576698,-0.02773 -0.547119,-1.251679 -0.547118,-1.2516779 -2.843658,1.611e-4 -2.843659,1.612e-4 -0.555603,1.2548566 -0.555604,1.254856 h -0.930741 c -0.712719,0 -0.921032,-0.02371 -0.889292,-0.101211 0.04913,-0.119969 2.277229,-5.195308 3.741188,-8.5219727 0.568328,-1.2914533 1.059454,-2.37723689 1.091392,-2.41285249 0.03194,-0.0356156 0.478183,-0.0396388 0.991657,-0.00894 l 0.933589,0.0558152 2.250708,5.10997849 c 1.237889,2.8104881 2.334882,5.3012675 2.437762,5.5350655 l 0.187054,0.425087 -0.383581,-0.01609 c -0.210969,-0.0088 -0.643094,-0.02857 -0.960277,-0.04382 z M 41.509953,7.7167837 C 41.612026,7.6518461 41.46481,7.2780683 40.306804,4.6620069 39.951977,3.8604152 39.630087,3.1718693 39.591491,3.1319047 39.516156,3.0538971 39.488489,3.1111378 38.366876,5.6655021 37.968095,6.5736874 37.621005,7.4208241 37.595564,7.548028 l -0.04626,0.23128 1.933131,-0.00124 c 1.063223,-6.802e-4 1.975604,-0.02826 2.027514,-0.061284 z"
     id="path4605"
     inkscape:connector-curvature="0" />
  <path
     style="fill:#ff4e50;fill-opacity:1;stroke-width:0.08096886"
     d="m 44.33045,11.928565 -0.809689,-0.02697 -0.534812,-1.231212 -0.534811,-1.2312124 -2.876611,-0.021254 -2.87661,-0.021255 -0.556052,1.2616994 -0.556052,1.2617 -0.823376,-0.02591 c -0.452857,-0.01425 -0.84708,-0.0497 -0.87605,-0.07878 -0.0418,-0.04195 3.622098,-8.4934113 4.531541,-10.4528425 l 0.216088,-0.46557098 0.86448,0.00124 c 0.475464,6.8176e-4 0.910879,0.0306872 0.967589,0.0666784 0.09303,0.0590398 4.876476,10.81168508 4.876476,10.96175908 0,0.03468 -0.04555,0.05537 -0.101212,0.04598 -0.05567,-0.0094 -0.46557,-0.02921 -0.910899,-0.04405 z M 41.537024,7.6082154 c 0,-0.3449089 -1.891975,-4.5663493 -2.013027,-4.4915352 -0.147263,0.091014 -1.954447,4.2837759 -1.954447,4.5344205 0,0.1134751 0.227949,0.1282073 1.983737,0.1282073 1.96514,0 1.983737,-0.0016 1.983737,-0.1710926 z"
     id="path4607"
     inkscape:connector-curvature="0" />
  <path
     style="fill:#ff4e50;fill-opacity:1;stroke-width:0.08096886"
     d="m 44.165724,11.929731 -0.650541,-0.027 -0.536958,-1.231783 -0.536958,-1.2317824 -2.86932,-0.021252 -2.86932,-0.021253 -0.553475,1.2560284 -0.553475,1.256027 -0.774136,-0.0012 c -0.425775,-6.83e-4 -0.823173,-0.03232 -0.883107,-0.0703 -0.101651,-0.06442 1.346956,-3.4744306 4.097177,-9.6447226 l 0.559386,-1.25501725 h 0.963906 0.963906 l 0.396549,0.89065745 c 1.757764,3.9479776 4.423203,10.0264364 4.423203,10.0869904 0,0.04103 -0.118417,0.06719 -0.263149,0.05812 -0.144732,-0.0091 -0.555892,-0.02863 -0.913688,-0.04348 z M 41.481782,7.5197077 C 41.453761,7.1036591 39.681987,3.164083 39.522895,3.164083 c -0.03799,0 -0.367056,0.677386 -0.731262,1.5053021 -0.99595,2.2639967 -1.237274,2.8725779 -1.188984,2.998421 0.03647,0.095027 0.37048,0.1107586 1.968903,0.09273 l 1.924988,-0.021712 z"
     id="path4609"
     inkscape:connector-curvature="0" />
  <path
     style="fill:#ff4e50;fill-opacity:1;stroke-width:0.08096886"
     d="M 44.03825,11.929907 43.503145,11.901842 42.97012,10.670506 42.437093,9.4391696 39.573747,9.4179217 36.7104,9.3966739 36.156927,10.652697 35.603453,11.90872 34.825429,11.90748 C 34.397516,11.906798 33.998447,11.87521 33.93861,11.83729 33.833378,11.7706 35.260791,8.3956209 37.829451,2.6377885 l 0.758551,-1.70034605 0.936252,-0.0227083 c 0.687825,-0.0166828 0.957302,0.004802 1.015579,0.0809689 0.107056,0.13991925 4.802728,10.80910295 4.802728,10.91242895 0,0.07917 -0.159325,0.08183 -1.304311,0.02178 z M 41.439359,7.7103717 c 0.08451,-0.053611 0.07889,-0.1433597 -0.02905,-0.464331 -0.268222,-0.7975792 -1.7624,-4.0819577 -1.857024,-4.0819577 -0.09228,0 -1.314667,2.6971695 -1.794775,3.960126 -0.156699,0.412207 -0.175604,0.5326968 -0.09191,0.5857844 0.137138,0.086986 3.63568,0.087337 3.772755,3.805e-4 z"
     id="path4611"
     inkscape:connector-curvature="0" />
  <path
     style="fill:#ff4e50;fill-opacity:1;stroke-width:0.08096886"
     d="m 43.956,11.930156 -0.455417,-0.02891 -0.546945,-1.25128 -0.546944,-1.2512799 H 39.559482 36.71227 l -0.550614,1.2550169 -0.550615,1.255018 h -0.837766 c -0.460772,0 -0.859511,-0.03518 -0.886088,-0.07819 -0.04848,-0.07845 1.495984,-3.6960818 3.578967,-8.38306 l 1.115507,-2.51003455 0.939423,-0.0227083 c 0.690511,-0.0166915 0.960362,0.004762 1.018449,0.0809689 0.08438,0.11070705 0.285699,0.56230905 3.031479,6.80039985 0.974352,2.2136131 1.771549,4.0627391 1.771549,4.1091701 0,0.08227 -0.376302,0.08902 -1.386561,0.02489 z M 41.494561,7.6869816 c 0.09702,-0.097314 -1.355275,-3.535573 -1.80749,-4.2791802 L 39.526478,3.1437276 39.360128,3.4698012 C 38.982326,4.2103545 37.56955,7.5113514 37.56955,7.653545 c 0,0.018106 0.06376,0.050813 0.141696,0.072682 0.207564,0.058245 3.722473,0.021784 3.783315,-0.039245 z"
     id="path4613"
     inkscape:connector-curvature="0" />
  <path
     style="fill:#ff4e50;fill-opacity:1;stroke-width:0.08096886"
     d="m 43.886451,11.929479 c -0.199666,-0.01755 -0.390043,-0.07495 -0.423059,-0.12755 -0.03302,-0.0526 -0.284037,-0.614844 -0.557822,-1.249438 L 42.40778,9.3986851 h -2.845686 -2.845685 l -0.538102,1.2347749 -0.538102,1.234775 -0.829858,0.02322 c -0.456421,0.01277 -0.862502,-0.0094 -0.902401,-0.04932 -0.04275,-0.04275 0.125143,-0.534537 0.408724,-1.197269 1.32763,-3.1026848 3.878704,-8.9049169 4.143089,-9.4231547 l 0.165678,-0.32475428 h 0.919582 c 0.638471,0 0.944352,0.0309396 1.00061,0.10121107 0.136272,0.17021421 4.796932,10.77044391 4.796932,10.91016591 0,0.07925 -0.682492,0.08916 -1.45611,0.02115 z m -2.928086,-4.20219 c 0.398002,-0.0416 0.49769,-0.080107 0.49769,-0.1922463 0,-0.2474746 -0.9382,-2.4576947 -1.596428,-3.7608782 L 39.533875,3.1292287 39.371417,3.4502891 c -0.290498,0.5741001 -1.332016,2.9767694 -1.567163,3.6152734 l -0.229157,0.6222405 0.179407,0.034726 c 0.295553,0.057207 2.668343,0.060733 3.203861,0.00476 z"
     id="path4615"
     inkscape:connector-curvature="0" />
  <path
     style="fill:#ff4e50;fill-opacity:1;stroke-width:0.08096886"
     d="m 43.830103,11.930682 -0.33841,-0.03072 -0.548695,-1.25064 -0.548694,-1.2506409 -2.837463,0.00175 -2.837464,0.00175 -0.541243,1.2330219 -0.541242,1.233022 -0.828201,0.02322 c -0.455511,0.01277 -0.862299,-0.01088 -0.903973,-0.05255 -0.07911,-0.07911 0.861001,-2.3087684 3.325641,-7.8874659 l 1.351302,-3.05866573 0.971626,0.0223335 0.971626,0.0223335 0.231381,0.48581313 c 0.66714,1.4007429 4.586267,10.3670465 4.586267,10.4926065 0,0.07097 -0.806762,0.07887 -1.512458,0.01482 z M 41.443549,7.6568664 c 0.100173,-0.1001732 -0.882205,-2.4974122 -1.62357,-3.961901 l -0.2846,-0.5621972 -0.334585,0.7042417 c -0.486556,1.024114 -1.472678,3.3721321 -1.523999,3.628736 -0.03851,0.1925301 -0.015,0.2252231 0.187514,0.2607987 0.309363,0.054346 3.517673,-0.00811 3.57924,-0.069678 z"
     id="path4617"
     inkscape:connector-curvature="0" />
  <path
     style="fill:#ff4e50;fill-opacity:1;stroke-width:0.08096886"
     d="M 43.735686,11.918303 C 43.47576,11.870262 43.445671,11.823997 42.992194,10.775156 42.732262,10.173962 42.480384,9.6183131 42.432465,9.5403806 42.352164,9.4097811 42.125052,9.398788 39.532359,9.3999984 l -2.812982,0.00131 -0.534651,1.2334616 -0.534651,1.233461 -0.834793,0.02322 c -0.459136,0.01277 -0.868279,-0.01027 -0.909208,-0.05119 -0.08149,-0.08149 0.738524,-2.0350873 3.157478,-7.5223719 l 1.508047,-3.42093428 h 0.984756 0.984756 l 0.548404,1.23477508 c 1.716955,3.865858 4.185372,9.5191441 4.224774,9.6757791 0.04494,0.178647 0.0327,0.181973 -0.630944,0.171521 -0.372224,-0.0059 -0.79867,-0.03319 -0.947659,-0.06073 z M 41.411351,7.6110544 C 41.502844,7.5224687 40.785627,5.7132646 40.052044,4.182157 L 39.550582,3.135525 39.09401,4.1011881 c -0.551679,1.1668175 -1.443491,3.3118287 -1.443491,3.4719237 0,0.072864 0.112003,0.1290788 0.303633,0.1523937 0.500308,0.060871 3.374392,-0.034276 3.457199,-0.1144511 z"
     id="path4619"
     inkscape:connector-curvature="0" />
  <path
     style="fill:#ff4e50;fill-opacity:1;stroke-width:0.08096886"
     d="m 43.737112,11.918303 c -0.258629,-0.04805 -0.290234,-0.09727 -0.786115,-1.224116 L 42.434345,9.5201384 41.890287,9.458194 C 41.591055,9.424124 40.306084,9.405906 39.034794,9.41771 l -2.311435,0.02146 -0.535433,1.214532 -0.535434,1.214533 -0.836001,0.02322 c -0.459801,0.01277 -0.87018,-0.01096 -0.911955,-0.05273 -0.08428,-0.08428 0.6704,-1.8886371 2.912246,-6.9628003 0.779968,-1.7653697 1.491892,-3.3828341 1.582054,-3.5943652 l 0.163931,-0.38460208 h 0.992891 0.992891 l 0.870133,1.96349478 c 1.896544,4.2796378 3.850051,8.7651398 3.894518,8.9423108 0.04635,0.184685 0.0388,0.1868 -0.629855,0.176269 -0.372224,-0.0059 -0.798029,-0.03319 -0.946233,-0.06073 z M 41.364221,7.6257988 C 41.452922,7.5696043 41.385265,7.33192 41.022374,6.424866 40.773534,5.8028864 40.340243,4.808753 40.059505,4.2156809 L 39.549072,3.1373679 39.12367,4.044297 c -0.55061,1.1738664 -1.473151,3.3898373 -1.473151,3.5385525 0,0.096584 0.294919,0.1152866 1.801557,0.1142497 0.990857,-6.801e-4 1.851322,-0.032767 1.912145,-0.0713 z"
     id="path4621"
     inkscape:connector-curvature="0" />
  <path
     style="fill:#ff4e50;fill-opacity:1;stroke-width:0.08096886"
     d="m 43.698694,11.919383 c -0.201721,-0.04547 -0.285581,-0.18278 -0.755427,-1.236915 L 42.41475,9.4967004 40.943534,9.4421419 C 40.134366,9.412134 38.854256,9.3991896 38.098848,9.4133761 l -1.373471,0.025793 -0.534851,1.2145329 -0.534851,1.214533 -0.837593,0.02322 c -0.462216,0.01281 -0.872476,-0.01166 -0.915429,-0.05462 -0.08384,-0.08384 0.759473,-2.0936572 3.222898,-7.6808889 l 1.4369,-3.25899658 h 0.993621 0.99362 l 1.496622,3.38044978 c 2.088597,4.717555 3.296247,7.5088517 3.296247,7.6187657 0,0.100854 -1.222812,0.118119 -1.643867,0.02321 z M 41.247011,7.6491919 c 0.07044,-0.027031 0.128076,-0.1226312 0.128076,-0.212445 0,-0.1869113 -0.756353,-2.0252918 -1.374781,-3.341522 C 39.61844,3.28248 39.572081,3.2178373 39.470354,3.3562613 c -0.288481,0.3925469 -1.85287,4.142152 -1.778423,4.2626105 0.05338,0.086363 3.336075,0.1143603 3.55508,0.03032 z"
     id="path4623"
     inkscape:connector-curvature="0" />
  <path
     style="fill:#ff4e50;fill-opacity:1;stroke-width:0.08096886"
     d="m 43.651637,11.919465 c -0.155608,-0.0436 -0.294441,-0.283447 -0.716589,-1.237951 L 42.411458,9.4976436 40.213169,9.44158 C 39.004109,9.410745 37.725853,9.397589 37.372598,9.412343 l -0.64228,0.026827 -0.534671,1.214532 -0.534671,1.214533 -0.840243,0.02322 c -0.462134,0.01277 -0.874727,-0.01126 -0.916873,-0.05341 -0.08525,-0.08525 0.645511,-1.836102 2.978196,-7.1355553 0.813493,-1.8481141 1.525911,-3.4614479 1.583151,-3.5851861 l 0.104072,-0.22497855 1.005035,0.0225564 1.005035,0.0225564 1.537079,3.48166085 c 2.066838,4.6816235 3.226133,7.3693553 3.226133,7.4795343 0,0.100076 -1.348824,0.116692 -1.690924,0.02083 z M 41.34632,7.5923258 C 41.382269,7.5562849 41.327062,7.283015 41.22364,6.9850593 41.000264,6.3415239 39.703577,3.4034386 39.595031,3.2948924 c -0.0468,-0.046799 -0.21835,0.2299646 -0.450464,0.7267343 -0.646997,1.384703 -1.504247,3.5137356 -1.450084,3.6013734 0.06191,0.1001735 3.550554,0.07087 3.651837,-0.030674 z"
     id="path4625"
     inkscape:connector-curvature="0" />
  <path
     style="fill:#ff4e50;fill-opacity:1;stroke-width:0.08096886"
     d="m 43.651637,11.919465 c -0.155585,-0.0436 -0.294323,-0.28318 -0.71566,-1.23585 l -0.52266,-1.1817691 -2.644548,-0.058477 c -1.454501,-0.032163 -2.738299,-0.034824 -2.852885,-0.00591 -0.177173,0.0447 -0.286305,0.2304365 -0.729561,1.2416721 l -0.521223,1.189105 -0.842305,0.02322 c -0.463268,0.01277 -0.875737,-0.01021 -0.916599,-0.05107 -0.04508,-0.04508 0.116079,-0.531806 0.409826,-1.237753 0.457285,-1.0989736 2.894703,-6.6845738 3.821175,-8.7566262 l 0.426434,-0.95371933 1.005372,0.0225775 1.005373,0.0225775 0.648945,1.45743943 c 1.589555,3.5699152 4.034558,9.1874671 4.083283,9.3816021 l 0.05351,0.213208 -0.75774,-0.0081 c -0.416757,-0.0044 -0.844589,-0.03241 -0.950739,-0.06215 z M 41.079204,7.6451116 C 41.377136,7.5958889 41.388417,7.58281 41.340332,7.3423696 41.280122,7.0413001 40.34697,4.8394293 39.899505,3.9425853 39.630467,3.4033599 39.56401,3.3215634 39.471907,3.4162877 c -0.127499,0.1311279 -0.95785,1.9894534 -1.460532,3.2686729 -0.252089,0.6415123 -0.32287,0.9063222 -0.253964,0.9501442 0.116023,0.073787 2.885252,0.08213 3.321793,0.010007 z"
     id="path4627"
     inkscape:connector-curvature="0" />
  <path
     style="fill:#ff4e50;fill-opacity:1;stroke-width:0.08096886"
     d="m 43.650892,11.919289 c -0.156196,-0.04374 -0.295693,-0.282983 -0.719778,-1.234433 L 42.405082,9.5046806 39.921906,9.4573009 C 38.556159,9.4312419 37.281064,9.4310686 37.08836,9.4568961 36.699521,9.5090497 36.819355,9.319279 35.883511,11.36493 l -0.251297,0.549309 -0.873374,-0.02301 c -0.857393,-0.02257 -0.873007,-0.0264 -0.853364,-0.20924 0.02162,-0.201286 1.468429,-3.5929145 3.409071,-7.9916064 l 1.214559,-2.75294115 h 1.02774 1.027741 l 0.52252,1.17404845 c 1.512488,3.3984043 4.149209,9.4646281 4.197515,9.6570931 l 0.05549,0.221108 -0.75774,-0.0081 c -0.416757,-0.0044 -0.844924,-0.03249 -0.951484,-0.06233 z M 41.306419,7.5565153 c 0.08111,-0.081128 0.01517,-0.315278 -0.330583,-1.1740484 -0.494321,-1.22776 -1.345345,-3.0564461 -1.422391,-3.0564461 -0.122579,0 -1.821957,3.8742253 -1.821957,4.1536792 0,0.1925946 0.161877,0.2092368 1.878505,0.1931256 1.152104,-0.010813 1.623251,-0.043116 1.696426,-0.1163103 z"
     id="path4629"
     inkscape:connector-curvature="0" />
  <path
     style="fill:#ff4e50;fill-opacity:1;stroke-width:0.08096886"
     d="M 43.60173,11.913273 C 43.49485,11.869613 43.276603,11.479079 42.959805,10.7646 42.695812,10.169211 42.44502,9.6360648 42.402491,9.5798278 42.342271,9.5002006 41.705319,9.4822879 39.523395,9.498859 l -2.801769,0.021279 -0.527422,1.194007 -0.527422,1.194006 -0.890657,-0.01996 c -0.877041,-0.01965 -0.89035,-0.02281 -0.870545,-0.206797 0.02133,-0.198141 1.714662,-4.169681 3.52793,-8.2744068 l 1.090927,-2.46955015 h 1.035487 1.035487 L 41.43636,2.8402076 c 2.009314,4.5463589 3.906201,8.9353604 3.906201,9.0381344 0,0.08722 -0.171055,0.110235 -0.789447,0.106214 -0.434195,-0.0028 -0.862318,-0.0349 -0.951384,-0.07128 z M 40.889273,7.6296049 C 41.300438,7.5809299 41.332932,7.5618329 41.312828,7.3806746 41.271248,7.0059487 39.806104,3.586934 39.597876,3.378706 39.542096,3.322923 39.374907,3.5948138 39.079273,4.2221021 38.615756,5.2056118 37.731488,7.367527 37.731488,7.5172537 c 0,0.049148 0.100199,0.1045391 0.222664,0.1230911 0.358825,0.054357 2.449863,0.046706 2.935121,-0.01074 z"
     id="path4631"
     inkscape:connector-curvature="0" />
  <path
     style="fill:#ff4e50;fill-opacity:1;stroke-width:0.08096886"
     d="M 43.60173,11.912907 C 43.495456,11.869254 43.261433,11.452966 42.920902,10.701828 42.533407,9.8470947 42.35913,9.5468371 42.232667,9.5160843 c -0.09314,-0.02265 -1.371284,-0.031004 -2.840321,-0.018564 l -2.670975,0.022618 -0.524742,1.1967777 -0.524742,1.196777 -0.89321,-0.02273 c -0.880113,-0.02239 -0.892913,-0.02548 -0.87296,-0.210338 0.02164,-0.200532 1.957938,-4.7462854 3.610432,-8.4760586 l 1.004463,-2.26712805 1.024686,-0.0226784 1.024687,-0.0226784 0.248123,0.54897605 c 1.431216,3.1665898 4.524453,10.3047304 4.524453,10.4409014 0,0.08264 -0.183825,0.106533 -0.789447,0.102596 -0.434195,-0.0028 -0.862318,-0.03506 -0.951384,-0.07165 z M 40.626125,7.6453684 c 0.637676,-0.04964 0.667993,-0.060864 0.667993,-0.2472985 0,-0.3837764 -1.582331,-4.0139273 -1.731297,-3.9719074 -0.16547,0.046675 -1.618426,3.2591913 -1.792481,3.9632121 -0.05044,0.2040159 -0.03467,0.2193066 0.257342,0.2495377 0.547702,0.056702 1.909516,0.060086 2.598443,0.00646 z"
     id="path4633"
     inkscape:connector-curvature="0" />
  <path
     style="opacity:1;vector-effect:none;fill:#ff4e50;fill-opacity:1;stroke-width:0.00655596;stroke-linecap:butt;stroke-linejoin:miter;stroke-miterlimit:4;stroke-dasharray:none;stroke-dashoffset:0;stroke-opacity:1"
     d="M 47.123875,6.4028374 V 0.81598616 h 1.401312 1.401311 L 51.48665,4.0433491 c 0.858083,1.7750495 1.633447,3.3478873 1.72303,3.495195 l 0.162879,0.2678322 0.231723,-0.4237397 C 53.73173,7.1495797 54.500628,5.5949599 55.312944,3.9279259 l 1.476939,-3.03097088 h 0.53883 c 0.296356,0 0.927075,-0.0237551 1.401598,-0.052789 l 0.862769,-0.052789 V 6.3905328 11.989689 h -0.850173 -0.850173 l -0.0103,-3.4614191 C 57.876765,6.6244896 57.84944,4.6660554 57.821706,4.1761938 L 57.77128,3.2855363 57.528374,3.70424 c -0.133599,0.2302869 -1.026281,1.9692054 -1.983737,3.8642634 l -1.740831,3.4455596 -0.445328,-1.3e-5 -0.445329,-1.3e-5 -1.740831,-3.4463665 C 50.214862,5.6721688 49.32218,3.9332561 49.188581,3.7034201 l -0.242906,-0.4178838 -0.05081,0.850173 c -0.02794,0.4675952 -0.05527,2.4260295 -0.06073,4.3520762 l -0.0099,3.5019035 h -0.850173 -0.850173 z"
     id="path4635"
     inkscape:connector-curvature="0" />
  <path
     style="opacity:1;vector-effect:none;fill:#ff4e50;fill-opacity:1;stroke-width:0.00655596;stroke-linecap:butt;stroke-linejoin:miter;stroke-miterlimit:4;stroke-dasharray:none;stroke-dashoffset:0;stroke-opacity:1"
     d="M 47.123875,6.4028374 V 0.81598616 h 1.409035 1.409034 l 0.07827,0.22266434 c 0.20433,0.5813075 3.295965,6.7412633 3.370859,6.7162985 0.06253,-0.020844 3.199601,-6.297661 3.382008,-6.76690751 0.01462,-0.037601 0.655097,-0.0876373 1.423289,-0.11119157 l 1.396713,-0.042826 V 6.4118562 11.989689 H 58.742907 57.892734 L 57.882676,8.2043945 C 57.877146,6.1224827 57.849818,4.1640484 57.82195,3.8523183 57.771562,3.2886883 57.770518,3.286662 57.634227,3.4879585 57.558848,3.5992907 56.66278,5.33 55.642965,7.3339792 l -1.854208,3.6435988 h -0.430279 -0.43028 L 51.07399,7.3339792 C 50.054175,5.33 49.158107,3.5992907 49.082728,3.4879585 48.945916,3.2858926 48.945585,3.2864626 48.894412,3.8118339 48.866218,4.1012976 48.838891,6.0597318 48.833685,8.16391 l -0.0095,3.825779 h -0.850173 -0.850173 z"
     id="path4637"
     inkscape:connector-curvature="0" />
  <path
     style="opacity:1;vector-effect:none;fill:#ff4e50;fill-opacity:1;stroke-width:0.00655596;stroke-linecap:butt;stroke-linejoin:miter;stroke-miterlimit:4;stroke-dasharray:none;stroke-dashoffset:0;stroke-opacity:1"
     d="M 47.123875,6.4028374 V 0.81598616 h 1.406985 1.406984 l 0.181871,0.42508654 c 0.4247,0.9926463 3.168007,6.4572664 3.241627,6.4572664 0.05904,0 3.217788,-6.2104008 3.410077,-6.70453036 0.01553,-0.0399057 0.656756,-0.0945887 1.424948,-0.12151783 L 59.59308,0.82332883 V 6.4065087 11.989689 h -0.840634 -0.840635 l -0.0317,-4.2460366 C 57.862677,5.4083325 57.819215,3.4684198 57.783531,3.4327352 57.694295,3.343499 57.749739,3.2415415 55.66609,7.3265539 L 53.803806,10.977578 H 53.358478 52.913149 L 51.050865,7.3275095 c -2.094236,-4.1046943 -2.028417,-3.9837966 -2.11936,-3.8928614 -0.03674,0.036737 -0.07983,1.9766494 -0.09576,4.3109172 l -0.02896,4.2441237 h -0.841459 -0.84146 z"
     id="path4639"
     inkscape:connector-curvature="0" />
  <path
     style="opacity:1;vector-effect:none;fill:#ff4e50;fill-opacity:1;stroke-width:0.00655596;stroke-linecap:butt;stroke-linejoin:miter;stroke-miterlimit:4;stroke-dasharray:none;stroke-dashoffset:0;stroke-opacity:1"
     d="M 47.123875,6.4028374 V 0.81598616 l 1.396713,0.00314 1.396713,0.00314 1.656829,3.36143654 c 0.911256,1.8487901 1.699378,3.3967489 1.751382,3.4399085 0.06866,0.05698 0.548993,-0.8283407 1.753827,-3.2325318 0.912601,-1.821052 1.673009,-3.346807 1.689795,-3.3905667 0.01717,-0.0447711 0.641286,-0.103831 1.427233,-0.13505955 L 59.59308,0.80995587 V 6.3998223 11.989689 H 58.742907 57.892734 L 57.88228,8.8926298 C 57.87658,7.1892474 57.8492,5.2490311 57.82155,4.5810381 L 57.77128,3.3665052 57.528374,3.7483406 c -0.133599,0.2100095 -1.026281,1.930726 -1.983737,3.8238144 l -1.740831,3.441979 H 53.358478 52.913149 L 51.172318,7.572155 C 50.214862,5.6790666 49.32218,3.9583501 49.188581,3.7483406 l -0.242906,-0.3818354 -0.05085,1.133564 c -0.02797,0.6234602 -0.05529,2.5636765 -0.06073,4.3115917 l -0.0099,3.1780281 h -0.850173 -0.850173 z"
     id="path4641"
     inkscape:connector-curvature="0" />
  <path
     style="opacity:1;vector-effect:none;fill:#ff4e50;fill-opacity:1;stroke-width:0.00655596;stroke-linecap:butt;stroke-linejoin:miter;stroke-miterlimit:4;stroke-dasharray:none;stroke-dashoffset:0;stroke-opacity:1"
     d="M 47.123875,6.4028374 V 0.81598616 l 1.396713,0.00133 1.396713,0.00133 1.675553,3.39936204 c 0.921554,1.8696491 1.710238,3.399362 1.75263,3.399362 0.08933,0 1.697676,-3.0881673 2.73047,-5.2427335 l 0.708329,-1.47768168 h 0.42006 c 0.231032,0 0.863012,-0.0238174 1.404398,-0.0529274 L 59.59308,0.79110014 V 6.3903944 11.989689 H 58.756126 57.919172 L 57.866791,7.7671365 C 57.837982,5.4447328 57.795221,3.5253944 57.771767,3.50194 57.689154,3.4193271 57.479064,3.8045401 55.649895,7.392525 L 53.803806,11.0137 H 53.358478 52.913149 L 51.067059,7.392525 C 49.226028,3.7812699 49.028101,3.4190275 48.942653,3.5044755 c -0.02485,0.024849 -0.06753,1.9441873 -0.09484,4.2651964 l -0.04966,4.2200171 H 47.96101 47.123867 Z"
     id="path4643"
     inkscape:connector-curvature="0" />
  <path
     style="opacity:1;vector-effect:none;fill:#ff4e50;fill-opacity:1;stroke-width:0.00655596;stroke-linecap:butt;stroke-linejoin:miter;stroke-miterlimit:4;stroke-dasharray:none;stroke-dashoffset:0;stroke-opacity:1"
     d="M 47.123875,6.4028374 V 0.81598616 l 1.396713,6.931e-4 1.396713,6.9311e-4 1.680341,3.39999893 c 0.924187,1.8699994 1.707561,3.3996984 1.74083,3.399331 0.08772,-9.685e-4 0.277871,-0.3619802 1.940084,-3.6834151 0.8246,-1.6477163 1.504184,-3.00128483 1.510186,-3.00793015 0.006,-0.006645 0.639433,-0.0386286 1.407625,-0.071074 L 59.59308,0.7952914 V 6.39249 11.989689 h -0.837474 -0.837473 l -0.05771,-4.1901388 c -0.03174,-2.3045762 -0.08536,-4.2180041 -0.119156,-4.252062 -0.06785,-0.068379 -0.812677,1.3201449 -2.693135,5.020586 l -1.244322,2.4486278 -0.445328,-3.3e-4 -0.445329,-3.32e-4 -1.24414,-2.4482964 C 50.020531,5.3237664 49.0505,3.4879585 48.984876,3.4879585 c -0.0604,0 -0.160655,4.2526253 -0.160655,6.8145885 v 1.687142 h -0.850173 -0.850173 z"
     id="path4645"
     inkscape:connector-curvature="0" />
  <path
     style="opacity:1;vector-effect:none;fill:#ff4e50;fill-opacity:1;stroke-width:0.00655596;stroke-linecap:butt;stroke-linejoin:miter;stroke-miterlimit:4;stroke-dasharray:none;stroke-dashoffset:0;stroke-opacity:1"
     d="M 47.123875,6.4028374 V 0.81598616 h 1.399357 1.399356 l 1.697703,3.40453354 c 1.671963,3.3529168 1.699867,3.4018635 1.840499,3.2284239 0.07854,-0.09686 0.857344,-1.6015733 1.730678,-3.3438069 0.873335,-1.7422335 1.59245,-3.17357718 1.598034,-3.18076376 0.0056,-0.007187 0.638673,-0.0395636 1.406865,-0.071949 L 59.59308,0.79354142 V 6.391615 11.989689 h -0.838789 -0.83879 l -0.05962,-4.10917 C 57.823092,5.6204758 57.767743,3.7200266 57.732883,3.6572987 57.651484,3.5108232 57.438606,3.8975841 55.413188,7.8717599 L 53.809691,11.018062 H 53.360478 52.911265 L 51.870263,8.9735986 C 49.805411,4.918357 49.034931,3.4846521 48.976545,3.5889819 c -0.03179,0.056801 -0.08448,1.9701964 -0.117091,4.2519904 l -0.0593,4.1487167 h -0.838141 -0.838142 z"
     id="path4647"
     inkscape:connector-curvature="0" />
  <path
     style="opacity:1;vector-effect:none;fill:#ff4e50;fill-opacity:1;stroke-width:0.00655596;stroke-linecap:butt;stroke-linejoin:miter;stroke-miterlimit:4;stroke-dasharray:none;stroke-dashoffset:0;stroke-opacity:1"
     d="M 24.776471,6.4028374 V 0.81598616 h 3.84602 3.846021 v 0.85017304 0.850173 h -2.955363 -2.955364 v 1.5384083 1.5384083 h 2.671973 2.671972 V 6.4028374 7.212526 h -2.671972 -2.671973 v 1.5384083 1.5384087 h 3.076817 3.076817 v 0.850173 0.850173 h -3.967474 -3.967474 z"
     id="path4649"
     inkscape:connector-curvature="0" />
  <path
     style="opacity:1;vector-effect:none;fill:#ff4e50;fill-opacity:1;stroke-width:0.00655596;stroke-linecap:butt;stroke-linejoin:miter;stroke-miterlimit:4;stroke-dasharray:none;stroke-dashoffset:0;stroke-opacity:1"
     d="M 24.776471,6.4028374 V 0.81598616 h 3.84602 3.846021 v 0.85017304 0.850173 h -2.955363 -2.955364 v 1.5384083 1.5384083 h 2.671973 2.671972 V 6.4028374 7.212526 h -2.671972 -2.671973 v 1.5384083 1.5384087 h 3.076817 3.076817 v 0.850173 0.850173 h -3.967474 -3.967474 z"
     id="path4651"
     inkscape:connector-curvature="0" />
  <path
     style="opacity:1;vector-effect:none;fill:#ff4e50;fill-opacity:1;stroke-width:0.00655596;stroke-linecap:butt;stroke-linejoin:miter;stroke-miterlimit:4;stroke-dasharray:none;stroke-dashoffset:0;stroke-opacity:1"
     d="M 24.776471,6.4028374 V 0.81598616 h 3.84602 3.846021 v 0.85017304 0.850173 h -2.955363 -2.955364 v 1.5384083 1.5384083 h 2.671973 2.671972 V 6.4028374 7.212526 h -2.671972 -2.671973 v 1.5384083 1.5384087 h 3.076817 3.076817 v 0.850173 0.850173 h -3.967474 -3.967474 z"
     id="path4653"
     inkscape:connector-curvature="0" />
  <path
     style="opacity:1;vector-effect:none;fill:#ff4e50;fill-opacity:1;stroke-width:0.00655596;stroke-linecap:butt;stroke-linejoin:miter;stroke-miterlimit:4;stroke-dasharray:none;stroke-dashoffset:0;stroke-opacity:1"
     d="M 24.776471,6.4028374 V 0.81598616 h 3.84602 3.846021 v 0.85017304 0.850173 h -2.955363 -2.955364 v 1.5384083 1.5384083 h 2.671973 2.671972 V 6.4028374 7.212526 h -2.671972 -2.671973 v 1.5384083 1.5384087 h 3.076817 3.076817 v 0.850173 0.850173 h -3.967474 -3.967474 z"
     id="path4655"
     inkscape:connector-curvature="0" />
  <path
     style="opacity:1;vector-effect:none;fill:#ff4e50;fill-opacity:1;stroke-width:0.00655596;stroke-linecap:butt;stroke-linejoin:miter;stroke-miterlimit:4;stroke-dasharray:none;stroke-dashoffset:0;stroke-opacity:1"
     d="m 64.734602,11.821287 c -0.735971,-0.212643 -1.743364,-0.708736 -2.320451,-1.142711 l -0.458167,-0.344546 0.161148,-0.226311 c 0.08863,-0.1244703 0.335102,-0.4154942 0.547714,-0.6467194 l 0.386567,-0.420409 0.517719,0.3364766 c 1.122249,0.7293738 1.925771,0.9936488 3.018563,0.9927928 0.742567,-5.67e-4 1.117797,-0.108974 1.480904,-0.4277872 0.531782,-0.4669102 0.669469,-1.175267 0.327565,-1.68522 C 68.131149,7.8615807 67.590724,7.6051052 66.030104,7.1339658 63.13769,6.260768 62.522945,5.7118235 62.445765,3.9332872 62.400105,2.8811089 62.573712,2.3725102 63.187299,1.7608873 63.948944,1.001681 64.92033,0.65325854 66.26978,0.65524525 c 1.165448,0.001716 2.152032,0.25868739 3.174675,0.82689475 0.666044,0.3700711 0.666955,0.3753283 0.185799,1.0713448 -0.232158,0.335829 -0.431403,0.6105982 -0.442766,0.6105982 -0.01136,0 -0.308444,-0.1460207 -0.660181,-0.3244904 -0.814253,-0.4131491 -1.634383,-0.5902078 -2.543337,-0.5490833 -0.579874,0.026236 -0.757495,0.068672 -1.081022,0.2582711 -0.929139,0.5445121 -0.880494,1.7266772 0.09277,2.2544557 0.212649,0.1153149 0.878521,0.3598255 1.479715,0.5433571 2.615678,0.7985103 3.264748,1.1876463 3.743099,2.2440977 0.143866,0.3177298 0.177272,0.5428343 0.178194,1.2007278 9.96e-4,0.7088597 -0.02584,0.8678663 -0.215508,1.2768723 -0.293963,0.633926 -0.921429,1.227856 -1.67985,1.59007 l -0.60898,0.290843 -1.295502,0.01792 c -1.095653,0.01516 -1.382936,-0.0073 -1.862284,-0.145839 z"
     id="path4657"
     inkscape:connector-curvature="0" />
  <path
     style="opacity:1;vector-effect:none;fill:#ff4e50;fill-opacity:1;stroke-width:0.00655596;stroke-linecap:butt;stroke-linejoin:miter;stroke-miterlimit:4;stroke-dasharray:none;stroke-dashoffset:0;stroke-opacity:1"
     d="m 64.613149,11.75406 c -0.244931,-0.08027 -0.658399,-0.241846 -0.918819,-0.359052 -0.4829,-0.217336 -1.548383,-0.889887 -1.63703,-1.03332 -0.04482,-0.07252 0.08688,-0.254006 0.749943,-1.0334029 l 0.232101,-0.2728213 0.516402,0.3337666 c 0.672306,0.4345323 1.256818,0.7078146 1.837301,0.8590116 0.622579,0.162161 1.806041,0.160181 2.198308,-0.0037 C 68.766818,9.7535465 68.932856,8.3950301 67.889993,7.8011141 67.713179,7.700414 66.894446,7.39697 66.070588,7.1267909 62.995124,6.1182114 62.503925,5.6465795 62.493286,3.6919902 c -0.0037,-0.6760177 0.02243,-0.8255024 0.211738,-1.212442 0.374286,-0.7650135 1.282725,-1.4309596 2.281822,-1.67272661 0.587067,-0.14206158 2.076193,-0.12175122 2.729751,0.0372314 0.747806,0.18190931 1.662664,0.57155401 1.996676,0.85039941 L 69.98771,1.9235631 69.774141,2.2806743 C 69.656678,2.4770854 69.472074,2.7458255 69.36391,2.8778742 L 69.167249,3.117963 68.529818,2.8199589 C 67.288876,2.2398084 65.851766,2.0941349 65.050421,2.4672678 64.29967,2.8168432 64.03376,3.4811153 64.368104,4.1717768 c 0.24369,0.5033969 0.570239,0.6788891 2.418871,1.2999357 2.292592,0.7701951 2.835298,1.0859179 3.295912,1.9174185 0.22693,0.4096556 0.238566,0.4780533 0.238566,1.4022877 0,0.9254165 -0.01141,0.9922215 -0.239867,1.4046763 -0.302756,0.546589 -0.844919,1.03633 -1.567759,1.416172 l -0.564151,0.296453 -1.445599,-0.0044 c -1.165522,-0.0035 -1.53188,-0.03263 -1.890928,-0.150305 z"
     id="path4659"
     inkscape:connector-curvature="0" />
  <path
     style="opacity:1;vector-effect:none;fill:#ff4e50;fill-opacity:1;stroke-width:0.00655596;stroke-linecap:butt;stroke-linejoin:miter;stroke-miterlimit:4;stroke-dasharray:none;stroke-dashoffset:0;stroke-opacity:1"
     d="M 84.331237,10.807359 C 84.622929,10.14392 85.724481,7.642673 86.77913,5.2490311 l 1.917545,-4.35207608 h 0.978196 0.978197 l 0.737419,1.68010378 c 1.840464,4.1932348 3.966861,9.0610542 4.014429,9.1899652 0.04785,0.129686 -0.02545,0.141696 -0.864893,0.141696 H 93.622845 L 93.069814,10.653702 92.516784,9.3986851 H 89.67301 86.829237 l -0.55303,1.2550169 -0.55303,1.255018 h -0.340722 c -0.187397,0 -0.619912,0.0236 -0.961144,0.05244 l -0.620424,0.05245 z M 91.628614,7.7173414 C 91.693422,7.6760291 91.529854,7.2125765 91.093238,6.2004152 90.057572,3.7995354 89.745566,3.1235986 89.67301,3.1235986 c -0.07256,0 -0.384561,0.6759368 -1.420228,3.0768166 -0.436615,1.0121613 -0.600184,1.4756139 -0.535375,1.5169262 0.05133,0.032718 0.931347,0.059487 1.955603,0.059487 1.024256,0 1.904278,-0.026769 1.955604,-0.059487 z"
     id="path4661"
     inkscape:connector-curvature="0" />
  <path
     style="opacity:1;vector-effect:none;fill:#ff4e50;fill-opacity:1;stroke-width:0.00655596;stroke-linecap:butt;stroke-linejoin:miter;stroke-miterlimit:4;stroke-dasharray:none;stroke-dashoffset:0;stroke-opacity:1"
     d="m 83.884926,11.939556 c 6.54e-4,-0.03923 1.085229,-2.5307498 2.410165,-5.5367186 l 2.408975,-5.46539795 0.970286,-0.0202363 0.970285,-0.0202363 2.369457,5.43968035 c 1.760327,4.0412708 2.34315,5.4563798 2.267128,5.5046368 -0.05628,0.03573 -0.448471,0.0654 -0.871533,0.06593 l -0.769205,9.79e-4 -0.539429,-1.234514 -0.53943,-1.2345144 H 89.67301 86.784396 l -0.53943,1.2345134 -0.53943,1.234514 -0.607266,0.0012 c -0.333997,6.47e-4 -0.743901,0.02374 -0.9109,0.05134 -0.166998,0.0276 -0.303098,0.01809 -0.302444,-0.02113 z M 91.6268,7.5283592 c -0.08915,-0.4457629 -1.847019,-4.445245 -1.95379,-4.445245 -0.10677,0 -1.864637,3.9994821 -1.953789,4.445245 l -0.05019,0.2509488 h 2.003979 2.00398 z"
     id="path4663"
     inkscape:connector-curvature="0" />
  <path
     style="opacity:1;vector-effect:none;fill:#ff4e50;fill-opacity:1;stroke-width:0.00655596;stroke-linecap:butt;stroke-linejoin:miter;stroke-miterlimit:4;stroke-dasharray:none;stroke-dashoffset:0;stroke-opacity:1"
     d="M 97.243599,6.4028374 V 0.81598616 l 1.072837,0.001067 c 1.823014,0.001814 4.572794,0.15218835 5.125074,0.28027044 1.11638,0.2589048 1.97657,0.9313842 2.30585,1.8026757 0.21535,0.5697954 0.30551,1.8875421 0.17181,2.5109638 -0.20858,0.9725829 -0.83281,1.7829171 -1.7323,2.2487738 -0.25596,0.1325633 -0.46546,0.2830016 -0.46557,0.3343076 -1.1e-4,0.051306 0.601,0.934076 1.33579,1.9617117 0.7348,1.0276358 1.33599,1.8874488 1.33599,1.9106958 0,0.02325 -0.48278,0.04122 -1.07284,0.03994 l -1.07284,-0.0023 -0.69342,-0.94906 C 103.1726,10.433029 102.57141,9.5969406 102.218,9.0970389 l -0.64257,-0.9089125 -1.31574,-0.00199 -1.315745,-0.00199 v 1.9027676 1.902769 h -0.850173 -0.850173 z m 5.661201,0.00856 c 0.86125,-0.2677207 1.25447,-0.867477 1.25201,-1.909614 -0.002,-0.7636621 -0.11391,-1.1508703 -0.41733,-1.4414998 -0.46899,-0.4492127 -0.70103,-0.4924659 -2.83204,-0.527905 l -1.963495,-0.032653 v 2.0190317 c 0,1.1104674 0.01509,2.0342134 0.03354,2.0527687 0.06867,0.069084 3.661155,-0.077392 3.927315,-0.1601283 z"
     id="path4665"
     inkscape:connector-curvature="0" />
  <path
     style="opacity:1;vector-effect:none;fill:#ff4e50;fill-opacity:1;stroke-width:0.00655596;stroke-linecap:butt;stroke-linejoin:miter;stroke-miterlimit:4;stroke-dasharray:none;stroke-dashoffset:0;stroke-opacity:1"
     d="M 97.243599,6.3929443 V 0.7962 l 1.761072,0.0533103 c 2.629209,0.0795902 4.189729,0.2011449 4.726319,0.3681517 0.91864,0.2859123 1.62194,0.8591557 1.94212,1.5829855 0.20693,0.46779 0.33754,1.7846081 0.2382,2.4014549 -0.15971,0.9916875 -0.76219,1.8781327 -1.59652,2.3490003 -0.23022,0.1299283 -0.46283,0.2895477 -0.51691,0.3547097 -0.11484,0.138377 -0.0634,0.2216321 1.49914,2.4278166 0.88221,1.245578 1.00496,1.455964 0.87859,1.50579 -0.0808,0.03186 -0.53645,0.06048 -1.01257,0.06361 l -0.86569,0.0057 -0.35467,-0.465571 c -0.19507,-0.256064 -0.80202,-1.094092 -1.34877,-1.8622839 l -0.9941,-1.3967129 h -1.32793 -1.327935 v 1.9027678 1.902769 h -0.850173 -0.850173 z m 3.684081,0.1697462 c 1.88621,-0.086315 2.18557,-0.1393961 2.62087,-0.464725 0.43628,-0.3260644 0.61508,-0.8190144 0.60892,-1.6788652 -0.006,-0.7949412 -0.0962,-1.0595958 -0.48986,-1.4320461 -0.38372,-0.3630523 -0.61293,-0.4048082 -2.41605,-0.4401256 -0.93519,-0.018318 -1.836984,-0.047446 -2.003982,-0.06473 L 98.943945,2.4507726 V 4.494279 c 0,1.8799555 0.01969,2.1529029 0.15519,2.1506953 0.02598,-4.233e-4 0.848823,-0.037451 1.828545,-0.082284 z"
     id="path4667"
     inkscape:connector-curvature="0" />
  <path
     style="opacity:1;vector-effect:none;fill:#ff4e50;fill-opacity:1;stroke-width:0.00655596;stroke-linecap:butt;stroke-linejoin:miter;stroke-miterlimit:4;stroke-dasharray:none;stroke-dashoffset:0;stroke-opacity:1"
     d="M 13.116955,6.4028374 V 0.81598616 l 0.951384,0.001689 c 1.546347,0.002745 4.611975,0.14892459 5.149437,0.24554274 0.663013,0.1191881 1.451533,0.5037383 1.850028,0.9022331 1.243653,1.2436533 1.091704,4.1564731 -0.273531,5.2434888 -0.228914,0.1822643 -0.592518,0.4122736 -0.808008,0.5111319 -0.215491,0.098858 -0.391801,0.2033376 -0.391801,0.2321768 0,0.028839 0.405964,0.6302462 0.902142,1.3364601 0.496179,0.7062136 1.102891,1.5699524 1.348251,1.9194174 0.35546,0.506282 0.42305,0.650266 0.332632,0.708589 -0.06241,0.04026 -0.549269,0.06404 -1.081906,0.05284 l -0.968432,-0.02035 -1.327489,-1.882526 -1.32749,-1.8825256 H 16.185221 14.89827 v 1.9027676 1.902769 h -0.890658 -0.890657 z m 5.836664,-0.07057 C 19.691752,6.0482794 19.98674,5.6005727 20.058189,4.6558475 20.118403,3.8596782 19.986272,3.4062377 19.58964,3.0479042 19.420465,2.8950652 19.142836,2.7286182 18.972686,2.6780218 18.802536,2.6274254 17.816185,2.5651856 16.780796,2.539711 L 14.89827,2.4933937 V 4.5395263 6.585659 l 1.801557,-0.0397 C 18.28988,6.51092 18.554477,6.485832 18.953619,6.3322674 Z"
     id="path4669"
     inkscape:connector-curvature="0" />
  <path
     style="opacity:1;vector-effect:none;fill:#ff4e50;fill-opacity:1;stroke-width:0.00655596;stroke-linecap:butt;stroke-linejoin:miter;stroke-miterlimit:4;stroke-dasharray:none;stroke-dashoffset:0;stroke-opacity:1"
     d="M 13.116955,6.394427 V 0.79916538 l 1.720588,0.053311 c 2.969864,0.0920188 4.332903,0.19823652 4.871288,0.37960522 1.01654,0.3424476 1.603826,0.8573289 1.919293,1.6826702 0.215057,0.5626425 0.293955,1.7945844 0.157139,2.4536217 -0.123644,0.5955914 -0.492777,1.3317217 -0.831434,1.6580597 -0.235747,0.2271707 -1.076875,0.7801647 -1.29958,0.8543997 -0.123095,0.041032 0.0066,0.2512735 1.235716,2.0036654 1.048326,1.4945917 1.295502,1.8720647 1.295502,1.9784137 0,0.0252 -0.464559,0.0452 -1.032353,0.04445 l -1.032353,-0.0014 -1.297335,-1.84068 -1.297336,-1.8406813 -1.31391,-0.022248 -1.31391,-0.022248 v 1.9047743 1.904774 h -0.890658 -0.890657 z m 4.30013,0.1399868 c 0.989403,-0.027511 1.247596,-0.06153 1.578893,-0.2080274 C 19.772072,5.9832006 20.08076,5.4415714 20.079825,4.4246466 20.079208,3.7533803 19.967544,3.4054126 19.655982,3.1038684 19.198947,2.6615288 18.953262,2.606159 17.234228,2.55808 16.372514,2.5339791 15.494403,2.4930893 15.282872,2.4672138 L 14.89827,2.4201674 v 2.1038282 2.1038282 l 0.667993,-0.03026 c 0.367396,-0.016643 1.200266,-0.045061 1.850822,-0.06315 z"
     id="path4671"
     inkscape:connector-curvature="0" />
  <path
     style="opacity:1;vector-effect:none;fill:#ff4e50;fill-opacity:1;stroke-width:0.00655596;stroke-linecap:butt;stroke-linejoin:miter;stroke-miterlimit:4;stroke-dasharray:none;stroke-dashoffset:0;stroke-opacity:1"
     d="M 0.64775087,6.4028374 V 0.81598616 l 1.19429063,0.001546 c 1.9209533,0.002487 3.924855,0.13938997 4.6858742,0.32013164 1.0805728,0.2566355 1.8299144,0.6609788 2.5479451,1.3748662 1.0235842,1.0176776 1.4487392,2.1259086 1.4458602,3.7688542 -0.0021,1.19178 -0.1663,1.9735412 -0.5969616,2.8419583 -0.6386451,1.2878085 -1.7543586,2.1424835 -3.3257975,2.5476755 -0.5141025,0.13256 -1.0654019,0.181953 -2.6719723,0.239393 -1.1133218,0.0398 -2.3066003,0.07393 -2.6517301,0.07583 l -0.62750863,0.0035 z M 5.2334038,10.207332 C 5.6879875,10.165663 6.2565469,10.056333 6.5080985,9.9622154 7.1055435,9.7386823 7.8306192,9.1810578 8.1551082,8.695571 8.6283605,7.9875099 8.6966562,7.69963 8.6990221,6.4028374 8.7010479,5.2924448 8.6886734,5.1990759 8.4707921,4.6807717 8.1814732,3.9925293 7.6786017,3.4277313 7.0630054,3.0996219 6.2610729,2.6721963 5.7937713,2.586922 3.9877163,2.5384357 L 2.3480969,2.4944176 v 3.8839677 c 0,2.1361822 0.017207,3.9011747 0.038237,3.9222047 0.055003,0.055 1.8827638,-0.0049 2.8470696,-0.09326 z"
     id="path4673"
     inkscape:connector-curvature="0" />
  <path
     style="opacity:1;vector-effect:none;fill:#ff4e50;fill-opacity:1;stroke-width:0.00655596;stroke-linecap:butt;stroke-linejoin:miter;stroke-miterlimit:4;stroke-dasharray:none;stroke-dashoffset:0;stroke-opacity:1"
     d="M 0.64775087,6.3916693 V 0.7945904 L 2.4088235,0.8491606 C 5.7574919,0.95292549 6.9883422,1.1455793 8.0154648,1.7267171 8.6282375,2.073419 9.6221942,3.0918621 9.9400569,3.6987226 10.328354,4.4400561 10.465483,5.1386377 10.462917,6.3623529 10.461249,7.157097 10.420466,7.5665552 10.296426,8.0338357 9.8066825,9.8787892 8.5578326,11.115807 6.6770111,11.618962 6.166752,11.755466 4.5716287,11.869294 2.1254325,11.943763 l -1.47768163,0.04499 z M 4.3318339,10.288761 C 4.999827,10.245743 5.7467647,10.169935 5.9916955,10.120297 6.9309298,9.929955 8.0088406,9.127399 8.4057403,8.3229257 8.6649261,7.7975841 8.7720098,7.0056094 8.7236147,5.9719812 8.6860638,5.1699494 8.657698,5.0454277 8.3884525,4.5006465 8.050074,3.8159841 7.5150662,3.2836424 6.8483812,2.9682499 6.2185731,2.670303 5.8347727,2.6004465 4.5747405,2.554419 3.9512803,2.5316447 3.1952336,2.4976604 2.8946367,2.4788982 L 2.3480969,2.4447852 v 3.9087839 c 0,2.1498311 0.024291,3.9330749 0.053979,3.9627629 0.071804,0.07181 0.476401,0.06602 1.9297577,-0.02757 z"
     id="path4675"
     inkscape:connector-curvature="0" />
  <path
     style="opacity:1;vector-effect:none;fill:#ff4e50;fill-opacity:1;stroke-width:0.01311191;stroke-linecap:butt;stroke-linejoin:miter;stroke-miterlimit:4;stroke-dasharray:none;stroke-dashoffset:0;stroke-opacity:1"
     d="M 97.250369,6.3661268 V 0.7792756 l 0.607267,0.005307 c 0.333996,0.002919 1.724904,0.0703413 3.090904,0.14982733 2.17519,0.12657197 2.58747,0.19636207 3.31972,0.56195587 1.06739,0.5329164 1.38646,0.9888535 1.6019,2.2890166 0.27544,1.6622047 -0.27495,2.99149 -1.57001,3.7918832 -0.54758,0.3384259 -0.55982,0.366924 -0.33685,0.7845545 0.12725,0.2383547 0.70047,1.08922 1.27381,1.8908119 0.68764,0.961386 0.98024,1.497933 0.85968,1.576413 -0.10051,0.06543 -0.54711,0.118683 -0.99244,0.118329 l -0.80969,-6.48e-4 -1.3067,-1.818672 -1.30669,-1.8186748 -1.40576,-0.046789 -1.405764,-0.046789 v 1.8685888 1.868588 h -0.809688 -0.809689 z m 4.894011,0.1052095 c 0.8071,-0.08977 1.1926,-0.2188915 1.4913,-0.4995042 0.81794,-0.7684186 0.68374,-2.6949548 -0.2203,-3.1624518 -0.30655,-0.1585236 -1.07999,-0.2402134 -2.45606,-0.2594076 l -2.008605,-0.028017 -0.04722,1.679179 c -0.06825,2.4270732 -0.07656,2.4096369 1.143385,2.399583 0.55496,-0.00457 1.49884,-0.062795 2.0975,-0.1293814 z"
     id="path4677"
     inkscape:connector-curvature="0" />
  <path
     style="opacity:1;vector-effect:none;fill:#ff4e50;fill-opacity:1;stroke-width:0.01311191;stroke-linecap:butt;stroke-linejoin:miter;stroke-miterlimit:4;stroke-dasharray:none;stroke-dashoffset:0;stroke-opacity:1"
     d="M 97.250369,6.3661268 V 0.7792756 l 0.850173,0.002402 c 0.467595,0.001321 1.896283,0.0738271 3.174858,0.16112498 2.03624,0.13902872 2.4227,0.21206702 3.11457,0.58862722 0.98464,0.5359086 1.27198,0.9678822 1.48984,2.2397492 0.28752,1.6785496 -0.3333,3.0521667 -1.79774,3.9776368 l -0.37453,0.2366887 1.2962,1.885244 c 0.71292,1.0368835 1.25189,1.9295655 1.19772,1.9837365 -0.0542,0.05417 -0.51071,0.09849 -1.01453,0.09849 h -0.91603 l -1.33188,-1.862284 -1.33188,-1.862283 h -1.3687 -1.368694 v 1.862283 1.862284 h -0.809688 -0.809689 z m 5.938181,-0.1649112 c 0.66994,-0.2773886 0.8632,-0.6711305 0.8632,-1.7586651 0,-0.7061366 -0.0803,-0.9856858 -0.38517,-1.3400599 -0.37734,-0.4386851 -0.42787,-0.4491174 -2.48633,-0.513253 -2.096416,-0.065318 -2.101395,-0.064601 -2.203622,0.3173032 -0.162447,0.6068734 -0.123257,2.8286488 0.05832,3.3062276 l 0.165199,0.4345075 1.737563,-0.1167729 c 0.95567,-0.064225 1.96854,-0.2124045 2.25084,-0.3292874 z"
     id="path4679"
     inkscape:connector-curvature="0" />
  <path
     style="opacity:1;vector-effect:none;fill:#ff4e50;fill-opacity:1;stroke-width:0.01311191;stroke-linecap:butt;stroke-linejoin:miter;stroke-miterlimit:4;stroke-dasharray:none;stroke-dashoffset:0;stroke-opacity:1"
     d="M 97.250369,6.3661268 V 0.7792756 l 1.09308,0.004724 c 0.601194,0.002598 2.030831,0.0733161 3.176981,0.1571515 1.83834,0.1344666 2.18085,0.2071989 2.90663,0.6172397 1.12215,0.6339756 1.47832,1.3422576 1.48074,2.9446105 0.002,1.4784026 -0.2513,2.0159921 -1.36642,2.8974468 l -0.7984,0.6310949 1.28154,1.8591762 c 0.70484,1.0225458 1.23583,1.9048688 1.17999,1.9607168 -0.0558,0.05585 -0.51572,0.101542 -1.02194,0.101542 h -0.9204 l -1.33703,-1.862284 -1.33703,-1.862283 h -1.35918 -1.359184 v 1.862283 1.862284 h -0.809688 -0.809689 z m 5.788771,-0.1073514 c 0.74145,-0.2261056 1.01261,-0.6960451 1.01261,-1.7549323 0,-1.6136731 -0.56379,-1.9408232 -3.34732,-1.9423495 l -1.646967,-9.031e-4 -0.111117,1.0375952 c -0.101183,0.9448243 0.01085,2.5802687 0.198383,2.8958745 0.09732,0.1637801 3.200601,-0.023708 3.894411,-0.2352848 z"
     id="path4681"
     inkscape:connector-curvature="0" />
  <path
     style="opacity:1;vector-effect:none;fill:#ff4e50;fill-opacity:1;stroke-width:0.01311191;stroke-linecap:butt;stroke-linejoin:miter;stroke-miterlimit:4;stroke-dasharray:none;stroke-dashoffset:0;stroke-opacity:1"
     d="M 97.250369,6.3661268 V 0.7792756 l 1.255018,0.002563 c 0.690259,0.00141 2.112343,0.0736016 3.160183,0.1604264 3.03253,0.2512768 4.05526,0.9738159 4.26678,3.0143955 0.15311,1.4770172 -0.12957,2.2582062 -1.17918,3.2587476 -0.49002,0.4671048 -0.86651,0.9043366 -0.83666,0.9716263 0.0298,0.06729 0.57869,0.8974745 1.21965,1.8448556 0.64096,0.94738 1.1207,1.76719 1.06609,1.821799 -0.0546,0.05461 -0.51861,0.09929 -1.03112,0.09929 h -0.93183 l -1.32111,-1.862284 -1.32111,-1.8622836 h -1.36367 -1.363664 v 1.8622836 1.862284 h -0.809688 -0.809689 z m 5.707221,-0.1027109 c 0.75185,-0.1886453 1.09416,-0.7816656 1.09416,-1.8955286 0,-1.4592081 -0.64376,-1.7965887 -3.44117,-1.8034335 l -1.578896,-0.00386 -0.01934,0.9311418 c -0.02606,1.2550031 0.03716,2.8495031 0.118274,2.9827807 0.0882,0.1449323 3.061712,-0.019088 3.826972,-0.2110971 z"
     id="path4683"
     inkscape:connector-curvature="0" />
  <path
     style="opacity:1;vector-effect:none;fill:#ff4e50;fill-opacity:1;stroke-width:0.01311191;stroke-linecap:butt;stroke-linejoin:miter;stroke-miterlimit:4;stroke-dasharray:none;stroke-dashoffset:0;stroke-opacity:1"
     d="M 97.250369,6.3661268 V 0.7792756 l 1.335986,0.001385 c 2.422605,0.002511 4.997275,0.3021641 5.757235,0.670053 0.93845,0.4542971 1.46115,1.2750923 1.58737,2.4926702 0.15496,1.494707 -0.12452,2.2680076 -1.18503,3.2788652 l -0.89817,0.8561221 1.22524,1.8396683 c 0.67388,1.0118176 1.1813,1.8836036 1.1276,1.9373036 -0.0537,0.0537 -0.51922,0.09764 -1.0345,0.09764 h -0.93686 l -1.33188,-1.862284 -1.33188,-1.8622831 h -1.34787 -1.347864 v 1.8622831 1.862284 h -0.809688 -0.809689 z m 6.101621,-0.2434615 c 0.46681,-0.2975408 0.69976,-0.8416669 0.69976,-1.6344837 0,-0.7490232 -0.34554,-1.5114594 -0.76321,-1.6840347 -0.15916,-0.065762 -1.18206,-0.1573026 -2.27312,-0.2034244 l -1.983736,-0.083858 v 1.9846646 1.9846646 l 1.983736,-0.069316 c 1.30886,-0.045735 2.10377,-0.1458269 2.33657,-0.2942124 z"
     id="path4685"
     inkscape:connector-curvature="0" />
  <path
     style="opacity:1;vector-effect:none;fill:#ff4e50;fill-opacity:1;stroke-width:0.01311191;stroke-linecap:butt;stroke-linejoin:miter;stroke-miterlimit:4;stroke-dasharray:none;stroke-dashoffset:0;stroke-opacity:1"
     d="M 97.250369,6.3407857 V 0.72859326 l 2.631488,0.1091187 c 3.095413,0.12835605 4.024303,0.28799164 4.848143,0.83317984 0.78468,0.5192772 1.09292,1.1363423 1.21369,2.4296919 0.13237,1.4174217 -0.20461,2.2717491 -1.276,3.2350221 l -0.81817,0.7356024 1.21587,1.8194316 c 0.66873,1.0006872 1.1836,1.8740852 1.14415,1.9408852 -0.0394,0.0668 -0.50114,0.121453 -1.02601,0.121453 h -0.95429 l -1.33188,-1.862284 -1.33188,-1.8622835 h -1.34787 -1.347864 v 1.8622835 1.862284 h -0.809688 -0.809689 z m 5.408871,-0.047951 c 0.86523,-0.2007014 1.24982,-0.6351745 1.35015,-1.5252632 0.10413,-0.9238444 -0.16822,-1.617196 -0.73779,-1.8782517 -0.23891,-0.109503 -1.29063,-0.2389863 -2.33715,-0.2877405 l -1.902766,-0.088644 v 1.9670802 1.9670801 l 1.497926,-0.00386 c 0.82386,-0.00212 1.78219,-0.069804 2.12963,-0.1503972 z"
     id="path4687"
     inkscape:connector-curvature="0" />
  <path
     style="opacity:1;vector-effect:none;fill:#ff4e50;fill-opacity:1;stroke-width:0.01311191;stroke-linecap:butt;stroke-linejoin:miter;stroke-miterlimit:4;stroke-dasharray:none;stroke-dashoffset:0;stroke-opacity:1"
     d="M 97.250369,6.3406378 V 0.72829747 l 2.712457,0.10834711 c 3.057904,0.12214588 3.907294,0.27173922 4.772644,0.84055092 0.77808,0.5114429 1.12088,1.1945747 1.22017,2.4315427 0.10847,1.3513265 -0.1656,2.0757954 -1.19258,3.1524809 l -0.85753,0.8990328 1.19485,1.7749098 c 0.65717,0.9762003 1.13792,1.8335173 1.06834,1.9051483 -0.0696,0.07163 -0.55128,0.108068 -1.07043,0.08097 l -0.94393,-0.04927 -1.30632,-1.818675 -1.30632,-1.8186741 -1.33599,-0.00312 -1.335984,-0.00312 v 1.8622831 1.862284 H 98.060058 97.250369 Z M 103.3755,6.0089209 c 0.8553,-0.6347094 0.868,-2.3661279 0.022,-2.9937628 -0.32799,-0.2433157 -0.81224,-0.325342 -2.38858,-0.4046 l -1.977196,-0.099412 v 1.9902038 1.9902039 l 1.955236,-0.080526 c 1.61506,-0.066516 2.03063,-0.1364747 2.38858,-0.4021065 z"
     id="path4689"
     inkscape:connector-curvature="0" />
  <path
     style="opacity:1;vector-effect:none;fill:#ff4e50;fill-opacity:1;stroke-width:0.01311191;stroke-linecap:butt;stroke-linejoin:miter;stroke-miterlimit:4;stroke-dasharray:none;stroke-dashoffset:0;stroke-opacity:1"
     d="M 97.250369,6.3408503 V 0.72872268 l 2.712457,0.10570264 c 3.044754,0.11865203 3.901064,0.26986278 4.772644,0.84277018 0.77808,0.5114429 1.12088,1.1945747 1.22017,2.4315427 0.10838,1.3502106 -0.16555,2.0757457 -1.18869,3.148407 l -0.85365,0.8949588 1.19136,1.7789837 c 0.65525,0.9784413 1.13426,1.8375913 1.06446,1.9092223 -0.0698,0.07163 -0.55538,0.108068 -1.07906,0.08097 l -0.95215,-0.04927 -1.29809,-1.816542 -1.2981,-1.816543 -1.33599,-0.00526 -1.335984,-0.00526 v 1.862284 1.862284 H 98.060058 97.250369 Z M 103.12844,6.141914 c 0.91103,-0.3589962 1.19992,-2.3245631 0.44241,-3.0100983 -0.33528,-0.3034232 -1.91882,-0.5575078 -3.52706,-0.5659268 l -1.012106,-0.0053 V 4.526429 6.4922692 l 1.821796,-0.085893 c 1.00199,-0.047241 2.02573,-0.1662497 2.27496,-0.264464 z"
     id="path4691"
     inkscape:connector-curvature="0" />
  <path
     style="opacity:1;vector-effect:none;fill:#ff4e50;fill-opacity:1;stroke-width:0.01311191;stroke-linecap:butt;stroke-linejoin:miter;stroke-miterlimit:4;stroke-dasharray:none;stroke-dashoffset:0;stroke-opacity:1"
     d="M 97.250369,6.3412789 V 0.72957973 l 2.631488,0.0960104 c 1.447323,0.0528057 3.011403,0.17876247 3.475743,0.27990387 1.68245,0.3664682 2.45832,1.2626142 2.59782,3.0005622 0.10994,1.3695442 -0.21158,2.2030689 -1.24086,3.2168662 l -0.79381,0.7818704 1.18551,1.7995518 c 0.65203,0.9897534 1.15087,1.8555954 1.10854,1.9240924 -0.0423,0.0685 -0.52812,0.121586 -1.07952,0.117975 l -1.00256,-0.0066 -1.2955,-1.852918 -1.2955,-1.8529177 -1.33599,-0.0028 -1.335984,-0.0028 v 1.8622837 1.862284 h -0.809688 -0.809689 z m 5.981901,-0.2939644 c 0.86079,-0.4451315 1.03571,-2.3510717 0.2738,-2.9833978 -0.25968,-0.2155187 -2.22001,-0.4912209 -3.543244,-0.4983262 l -0.931142,-0.005 V 4.5286152 6.49664 l 1.858446,-0.099597 c 1.18177,-0.063333 2.03456,-0.1906713 2.34214,-0.3497285 z"
     id="path4693"
     inkscape:connector-curvature="0" />
</svg>
