<?xml version="1.0" encoding="UTF-8" standalone="no"?>
<svg
   xmlns:dc="http://purl.org/dc/elements/1.1/"
   xmlns:cc="http://creativecommons.org/ns#"
   xmlns:rdf="http://www.w3.org/1999/02/22-rdf-syntax-ns#"
   xmlns:svg="http://www.w3.org/2000/svg"
   xmlns="http://www.w3.org/2000/svg"
   xmlns:sodipodi="http://sodipodi.sourceforge.net/DTD/sodipodi-0.dtd"
   xmlns:inkscape="http://www.inkscape.org/namespaces/inkscape"
   width="13px"
   height="16px"
   viewBox="0 0 13 16"
   version="1.1"
   id="svg3797"
   sodipodi:docname="music2.svg"
   inkscape:version="0.92.3 (2405546, 2018-03-11)">
  <metadata
     id="metadata3801">
    <rdf:RDF>
      <cc:Work
         rdf:about="">
        <dc:format>image/svg+xml</dc:format>
        <dc:type
           rdf:resource="http://purl.org/dc/dcmitype/StillImage" />
        <dc:title>Shape</dc:title>
      </cc:Work>
    </rdf:RDF>
  </metadata>
  <sodipodi:namedview
     pagecolor="#ffffff"
     bordercolor="#666666"
     borderopacity="1"
     objecttolerance="10"
     gridtolerance="10"
     guidetolerance="10"
     inkscape:pageopacity="0"
     inkscape:pageshadow="2"
     inkscape:window-width="1600"
     inkscape:window-height="838"
     id="namedview3799"
     showgrid="false"
     inkscape:zoom="41.8125"
     inkscape:cx="6.5"
     inkscape:cy="8"
     inkscape:window-x="-8"
     inkscape:window-y="-8"
     inkscape:window-maximized="1"
     inkscape:current-layer="svg3797" />
  <!-- Generator: Sketch 42 (36781) - http://www.bohemiancoding.com/sketch -->
  <title
     id="title3788">Shape</title>
  <desc
     id="desc3790">Created with Sketch.</desc>
  <defs
     id="defs3792" />
  <g
     id="Symbols"
     stroke="none"
     stroke-width="1"
     fill="none"
     fill-rule="evenodd">
    <g
       id="entypo/music2"
       transform="translate(-1.000000, 0.000000)"
       fill="#000000">
      <path
         d="M5.076,2.1712 L5.076,11.5712 C4.564,11.464 3.9688,11.5048 3.3784,11.7232 C2.0496,12.2168 1.5808,13.4176 1.9328,14.4048 C2.2848,15.3928 3.3248,15.792 4.6528,15.2984 C5.7808,14.88 6.52,13.9504 6.5016,13.0752 L6.5016,5.3104 L12.1256,4.0216 L12.1256,9.9864 C11.6128,9.88 11.0176,9.92 10.4272,10.1392 C9.0992,10.6328 8.6304,11.8336 8.9824,12.8208 C9.3336,13.8088 10.3736,14.208 11.7016,13.7152 C12.8304,13.296 13.5688,12.3664 13.5512,11.492 L13.5512,0.3504 L5.076,2.1712 L5.076,2.1712 Z"
         id="Shape"
         style="fill:#ffffff" />
    </g>
  </g>
</svg>
